<?xml version="1.0" encoding="UTF-8"?>
<svg width="24px" height="24px" viewBox="0 0 24 24" version="1.1" xmlns="http://www.w3.org/2000/svg" xmlns:xlink="http://www.w3.org/1999/xlink">
    <title>
        Facebook
    </title>
    <g id="Templates" stroke="none" stroke-width="1" fill="none" fill-rule="evenodd">
        <g id="Mobile" transform="translate(-26.000000, -1537.000000)">
            <g id="footer/mobile" transform="translate(0.000000, 650.000000)">
                <g id="Group-2" transform="translate(0.000000, 414.000000)">
                    <g id="social" transform="translate(20.000000, 467.000000)" fill="#FFFFFF">
                        <g id="Icon" transform="translate(6.000000, 6.000000)">
                            <path d="M16.8333333,2.14423077 L16.8333333,5.31730769 L14.8647762,5.31730769 C14.1458976,5.31730769 13.6610725,5.46153846 13.4103009,5.75 C13.1595293,6.03846154 13.0341435,6.47115385 13.0341435,7.04807692 L13.0341435,9.31971154 L16.7079475,9.31971154 L16.2189429,12.8774038 L13.0341435,12.8774038 L13.0341435,22 L9.19733796,22 L9.19733796,12.8774038 L6,12.8774038 L6,9.31971154 L9.19733796,9.31971154 L9.19733796,6.69951923 C9.19733796,5.20913462 9.63200874,4.05328526 10.5013503,3.23197115 C11.3706919,2.41065705 12.5284208,2 13.974537,2 C15.2033179,2 16.15625,2.04807692 16.8333333,2.14423077 Z" id="Shape">
                            </path>
                        </g>
                    </g>
                </g>
            </g>
        </g>
    </g>
</svg>
