<svg id="fintraffic" xmlns="http://www.w3.org/2000/svg" viewBox="0 0 170.08 122.18">
  <title>Fintraffic logo</title>
  <path d="M20.45,89.46H.56A.57.57,0,0,0,0,90v31.15a.56.56,0,0,0,.56.56H6.09a.56.56,0,0,0,.56-.56V108.83a.29.29,0,0,1,.28-.28H18.86a.56.56,0,0,0,.56-.56v-4.24a.56.56,0,0,0-.56-.56H6.93a.29.29,0,0,1-.28-.28V95.13a.29.29,0,0,1,.28-.28H20.45a.57.57,0,0,0,.57-.56V90A.58.58,0,0,0,20.45,89.46Z" />
  <path d="M47.18,97.31a6.79,6.79,0,0,0-6.63,4.3.28.28,0,0,1-.5,0L38,98.17a.83.83,0,0,0-.72-.41H34.62a.56.56,0,0,0-.56.56v22.86a.56.56,0,0,0,.56.56H39.9a.56.56,0,0,0,.56-.56v-13c0-4.38,2.26-5.64,4.06-5.64,2.3,0,3.83,1.36,3.83,5.58v13.08a.57.57,0,0,0,.57.56H54.2a.56.56,0,0,0,.56-.56V106.25C54.76,101.1,51.76,97.31,47.18,97.31Z" />
  <path d="M69.72,116.83a12.07,12.07,0,0,1-1.41.08,2.51,2.51,0,0,1-1.94-.58,2.79,2.79,0,0,1-.52-1.9V102.74a.28.28,0,0,1,.29-.28h3.25a.58.58,0,0,0,.57-.57V98.32a.57.57,0,0,0-.57-.56H66.14a.29.29,0,0,1-.29-.29V90.78a.42.42,0,0,0-.63-.37l-5.35,3.1a.84.84,0,0,0-.42.73v3.23a.29.29,0,0,1-.28.29H56.51a.56.56,0,0,0-.56.56v3.57a.57.57,0,0,0,.56.57h2.66a.28.28,0,0,1,.28.28v12.64q.13,6.81,6.87,6.8a13.45,13.45,0,0,0,3.36-.42.71.71,0,0,0,.52-.69v-3.83A.42.42,0,0,0,69.72,116.83Z" />
  <path d="M86.08,97.51c-1.33-.15-4.74,0-6.7,4.16a.28.28,0,0,1-.49,0l-2.11-3.54a.85.85,0,0,0-.73-.41H73.56a.56.56,0,0,0-.56.56v22.86a.56.56,0,0,0,.56.56h5.29a.56.56,0,0,0,.56-.56V107.44c0-3,3.07-4.86,6.61-3.85a.43.43,0,0,0,.55-.4V98.07A.56.56,0,0,0,86.08,97.51Z" />
  <path d="M107.62,116.2V105.8A7.79,7.79,0,0,0,105,99.54a10.42,10.42,0,0,0-7-2.23,13.29,13.29,0,0,0-5.28,1,8.5,8.5,0,0,0-3.64,2.78,6.61,6.61,0,0,0-1.27,3.41.43.43,0,0,0,.43.45h5.44a.54.54,0,0,0,.55-.46,2.58,2.58,0,0,1,.89-1.67,3.83,3.83,0,0,1,2.54-.77,3.38,3.38,0,0,1,2.7,1,4,4,0,0,1,.85,2.66v1.1a.29.29,0,0,1-.28.28H98.24q-5.34,0-8.17,2.06a6.73,6.73,0,0,0-2.82,5.46,7,7,0,0,0,2.29,5.51,8.46,8.46,0,0,0,5.87,2.06,7.67,7.67,0,0,0,5.78-2.69.21.21,0,0,1,.37.08l.43,1.72a.58.58,0,0,0,.57.45h5.36a.43.43,0,0,0,.42-.58A17.22,17.22,0,0,1,107.62,116.2Zm-6.43-3.1a4.08,4.08,0,0,1-4.39,4.37c-1.86,0-3.15-.91-3.15-2.93s1.55-3.71,5.15-3.71h2.11a.28.28,0,0,1,.28.29Z" />
  <path d="M169.5,113.45h-4.89a.57.57,0,0,0-.56.52,3.36,3.36,0,0,1-1.11,2.07,4.22,4.22,0,0,1-2.89,1,3.9,3.9,0,0,1-3.43-1.62c-.76-1.08-1.13-2.86-1.13-5.33v-.67q0-3.66,1.14-5.29a4.29,4.29,0,0,1,6.31-.46,4.24,4.24,0,0,1,1.11,2.52.58.58,0,0,0,.56.52h4.9a.57.57,0,0,0,.57-.59,8.93,8.93,0,0,0-2.74-6.23,10.13,10.13,0,0,0-7.22-2.56,10.27,10.27,0,0,0-8.09,3.31,12.76,12.76,0,0,0-2.95,8.84v.42q0,5.76,3,9a10.42,10.42,0,0,0,8.12,3.26,11.3,11.3,0,0,0,5-1.11,8.84,8.84,0,0,0,3.58-3.15,8.19,8.19,0,0,0,1.3-3.87A.56.56,0,0,0,169.5,113.45Z" />
  <rect x="23.58" y="97.76" width="6.43" height="23.99" rx="0.56" />
  <circle cx="26.79" cy="92.1" r="3.59" />
  <path d="M145.9,97.76H132.12a.28.28,0,0,1-.28-.29V95.83q0-3.39,3.61-3.39a10.3,10.3,0,0,1,1.54.1.42.42,0,0,0,.48-.42v-4a.57.57,0,0,0-.45-.55,14,14,0,0,0-2.81-.34,9,9,0,0,0-6.49,2.22,8.32,8.32,0,0,0-2.31,6.27v1.75a.29.29,0,0,1-.28.29h-7a.29.29,0,0,1-.28-.29V95.83q0-3.39,3.62-3.39a10.3,10.3,0,0,1,1.54.1.41.41,0,0,0,.47-.42v-4a.57.57,0,0,0-.45-.55,13.81,13.81,0,0,0-2.8-.34,9,9,0,0,0-6.49,2.22,8.32,8.32,0,0,0-2.32,6.27v25.46a.57.57,0,0,0,.57.56h5.3a.56.56,0,0,0,.56-.56V102.74a.28.28,0,0,1,.28-.28h7a.28.28,0,0,1,.28.28v18.44a.56.56,0,0,0,.56.56h5.3a.57.57,0,0,0,.57-.56V102.74a.27.27,0,0,1,.28-.28h3.55a3.39,3.39,0,0,0,1.7-.46l2.22-1.28a.29.29,0,0,1,.44.26v20.2a.56.56,0,0,0,.56.56h5.31a.56.56,0,0,0,.56-.56V98.32A.56.56,0,0,0,145.9,97.76Z" />
  <path d="M143.25,88.51a3.59,3.59,0,1,0,3.59,3.59A3.6,3.6,0,0,0,143.25,88.51Z" />
  <path d="M86.83,73,60.74,57.9a5.39,5.39,0,0,0-5.41,0l-8.1,4.67a5.39,5.39,0,0,1-5.41,0L26.88,54a.71.71,0,0,0-.72,0l-2,1.14a1.44,1.44,0,0,0,0,2.5L41.82,67.77a5.44,5.44,0,0,0,5.41,0l8.1-4.67a5.39,5.39,0,0,1,5.41,0L86.83,78.16a5.39,5.39,0,0,0,5.41,0L109.88,68a1.44,1.44,0,0,0,0-2.5l-2-1.14a.71.71,0,0,0-.72,0L92.24,73A5.44,5.44,0,0,1,86.83,73Z" />
  <path d="M143.19,54l-14.94,8.62a5.39,5.39,0,0,1-5.41,0L107.9,54a.71.71,0,0,0-.72,0L92.24,62.57a5.39,5.39,0,0,1-5.41,0L60.74,47.5a5.44,5.44,0,0,0-5.41,0l-8.1,4.68a5.44,5.44,0,0,1-5.41,0L26.88,43.55a.71.71,0,0,0-.72,0l-2,1.14a1.44,1.44,0,0,0,0,2.5L41.82,57.37a5.39,5.39,0,0,0,5.41,0l8.1-4.67a5.39,5.39,0,0,1,5.41,0L86.83,67.77a5.44,5.44,0,0,0,5.41,0l14.94-8.63a.71.71,0,0,1,.72,0l14.94,8.63a5.44,5.44,0,0,0,5.41,0l17.64-10.18a1.45,1.45,0,0,0,0-2.5l-2-1.14A.71.71,0,0,0,143.19,54Z" />
  <path d="M122.84,52.17,82.33,28.78a1.2,1.2,0,0,1,0-2.07h0a5.44,5.44,0,0,1,5.41,0L122.84,47a5.44,5.44,0,0,0,5.41,0l17.64-10.19a1.44,1.44,0,0,0,0-2.49L87.75.72a5.44,5.44,0,0,0-5.41,0L24.19,34.3a1.43,1.43,0,0,0,0,2.49L41.82,47a5.44,5.44,0,0,0,5.41,0l8.1-4.68a5.44,5.44,0,0,1,5.41,0L86.83,57.37a5.39,5.39,0,0,0,5.41,0l14.94-8.62a.71.71,0,0,1,.72,0l14.94,8.62a5.39,5.39,0,0,0,5.41,0l17.64-10.18a1.44,1.44,0,0,0,0-2.5l-2-1.14a.71.71,0,0,0-.72,0l-14.94,8.63A5.42,5.42,0,0,1,122.84,52.17Z" />
</svg>
