<?xml version="1.0" encoding="UTF-8"?>
<svg width="24px" height="24px" viewBox="0 0 24 24" version="1.1" xmlns="http://www.w3.org/2000/svg" xmlns:xlink="http://www.w3.org/1999/xlink">
    <title>
        Instagram
    </title>
    <g id="Templates" stroke="none" stroke-width="1" fill="none" fill-rule="evenodd">
        <g id="Mobile" transform="translate(-114.000000, -1537.000000)">
            <g id="footer/mobile" transform="translate(0.000000, 650.000000)">
                <g id="Group-2" transform="translate(0.000000, 414.000000)">
                    <g id="social" transform="translate(20.000000, 467.000000)" fill="#FFFFFF">
                        <g id="button/social-" transform="translate(88.000000, 0.000000)">
                            <g transform="translate(6.000000, 6.000000)" id="Icon">
                                <path d="M15.3333333,12 C15.3333333,11.0895062 15.0054012,10.3063272 14.349537,9.65046296 C13.6936728,8.99459877 12.9104938,8.66666667 12,8.66666667 C11.0895062,8.66666667 10.3063272,8.99459877 9.65046296,9.65046296 C8.99459877,10.3063272 8.66666667,11.0895062 8.66666667,12 C8.66666667,12.9104938 8.99459877,13.6936728 9.65046296,14.349537 C10.3063272,15.0054012 11.0895062,15.3333333 12,15.3333333 C12.9104938,15.3333333 13.6936728,15.0054012 14.349537,14.349537 C15.0054012,13.6936728 15.3333333,12.9104938 15.3333333,12 Z M17,12 C17,13.3813814 16.512012,14.5600601 15.536036,15.536036 C14.5600601,16.512012 13.3813814,17 12,17 C10.6186186,17 9.43993994,16.512012 8.46396396,15.536036 C7.48798799,14.5600601 7,13.3813814 7,12 C7,10.6186186 7.48798799,9.43993994 8.46396396,8.46396396 C9.43993994,7.48798799 10.6186186,7 12,7 C13.3813814,7 14.5600601,7.48798799 15.536036,8.46396396 C16.512012,9.43993994 17,10.6186186 17,12 Z M18.302589,5.697411 C18.5453074,5.94012945 18.6666667,6.23543689 18.6666667,6.58333333 C18.6666667,6.93122977 18.5453074,7.22653722 18.302589,7.46925566 C18.0598706,7.71197411 17.7645631,7.83333333 17.4166667,7.83333333 C17.0687702,7.83333333 16.7734628,7.71197411 16.5307443,7.46925566 C16.2880259,7.22653722 16.1666667,6.93122977 16.1666667,6.58333333 C16.1666667,6.23543689 16.2880259,5.94012945 16.5307443,5.697411 C16.7734628,5.45469256 17.0687702,5.33333333 17.4166667,5.33333333 C17.7645631,5.33333333 18.0598706,5.45469256 18.302589,5.697411 Z M11.9999905,3.69237569 C11.9374096,3.69237569 11.6010372,3.68846439 10.9908734,3.68064177 C10.3807096,3.67281916 9.91526418,3.67281916 9.59453705,3.68064177 C9.27380993,3.68846439 8.85138884,3.70410961 8.32727378,3.72757745 C7.31161702,3.77305812 6.55901127,3.8919853 6.06945651,4.084359 C4.82828948,4.5721302 4.09068749,5.53272358 3.85665056,6.96613915 C3.71595305,7.82787818 3.65340344,8.86664293 3.66900173,10.0824334 C3.68458437,11.2982239 3.69237569,11.9374096 3.69237569,11.9999905 C3.69237569,12.0625714 3.68846439,12.3989437 3.68064177,13.0091075 C3.67281916,13.6192713 3.67281916,14.0847168 3.68064177,14.4054439 C3.68846439,14.7261711 3.70410961,15.1485921 3.72757745,15.6727072 C3.77305812,16.6883796 3.8919853,17.4409932 4.084359,17.9305479 C4.5721302,19.171715 5.53272358,19.9093091 6.96613915,20.1433304 C7.82787818,20.2840279 8.86664293,20.3465854 10.0824334,20.3310027 C11.2982239,20.3154201 11.9374096,20.3076288 11.9999905,20.3076288 C12.0625714,20.3076288 12.3989437,20.3115401 13.0091075,20.3193627 C13.6192713,20.3271853 14.0847168,20.3271853 14.4054439,20.3193627 C14.7261711,20.3115401 15.1485921,20.2958948 15.6727072,20.272427 C16.6883796,20.2269463 17.4409932,20.1080113 17.9305479,19.915622 C19.171715,19.4278821 19.9093091,18.4672887 20.1433304,17.0338418 C20.2840279,16.1721028 20.3465854,15.133338 20.3310027,13.9175476 C20.3154201,12.7017571 20.3076288,12.0625714 20.3076288,11.9999905 C20.3076288,11.9374096 20.3115401,11.6010372 20.3193627,10.9908734 C20.3271853,10.3807096 20.3271853,9.91526418 20.3193627,9.59453705 C20.3115401,9.27380993 20.2958948,8.85138884 20.272427,8.32727378 C20.2269463,7.31161702 20.1080113,6.55901127 19.915622,6.06945651 C19.4278821,4.82828948 18.4672887,4.09068749 17.0338418,3.85665056 C16.1721028,3.71595305 15.133338,3.65340344 13.9175476,3.66900173 C12.7017571,3.68460002 12.0625714,3.69239134 11.9999905,3.69237569 Z M22,12 C22,13.8364198 21.9768519,15.2098765 21.9305556,16.1203704 C21.8533951,17.9259259 21.3171296,19.3263889 20.3217593,20.3217593 C19.3263889,21.3171296 17.9259259,21.8533951 16.1203704,21.9305556 C15.2098765,21.9768519 13.8364198,22 12,22 C10.1635802,22 8.79012346,21.9768519 7.87962963,21.9305556 C6.07407407,21.8533951 4.67361111,21.3171296 3.67824074,20.3217593 C2.68287037,19.3263889 2.14660494,17.9259259 2.06944444,16.1203704 C2.02314815,15.2098765 2,13.8364198 2,12 C2,10.1635802 2.02314815,8.79012346 2.06944444,7.87962963 C2.14660494,6.07407407 2.68287037,4.67361111 3.67824074,3.67824074 C4.67361111,2.68287037 6.07407407,2.14660494 7.87962963,2.06944444 C8.79012346,2.02314815 10.1635802,2 12,2 C13.8364198,2 15.2098765,2.02314815 16.1203704,2.06944444 C17.9259259,2.14660494 19.3263889,2.68287037 20.3217593,3.67824074 C21.3171296,4.67361111 21.8533951,6.07407407 21.9305556,7.87962963 C21.9768519,8.79012346 22,10.1635802 22,12 Z" id="Shape">
                                </path>
                            </g>
                        </g>
                    </g>
                </g>
            </g>
        </g>
    </g>
</svg>
