<?xml version="1.0" encoding="UTF-8"?>
<svg width="24px" height="24px" viewBox="0 0 24 24" version="1.1" xmlns="http://www.w3.org/2000/svg" xmlns:xlink="http://www.w3.org/1999/xlink">
    <title>
        Twitter
    </title>
    <g id="Templates" stroke="none" stroke-width="1" fill="none" fill-rule="evenodd">
        <g id="Mobile" transform="translate(-70.000000, -1537.000000)">
            <g id="footer/mobile" transform="translate(0.000000, 650.000000)">
                <g id="Group-2" transform="translate(0.000000, 414.000000)">
                    <g id="social" transform="translate(20.000000, 467.000000)" fill="#FFFFFF">
                        <g id="button/social-" transform="translate(44.000000, 0.000000)">
                            <g transform="translate(6.000000, 6.000000)" id="Icon">
                                <path d="M22,5.75 C21.4582393,6.59848485 20.7735139,7.31060606 19.9458239,7.88636364 C19.9608728,8.00757576 19.9683973,8.18939394 19.9683973,8.43181818 C19.9683973,10.7465152 19.317532,12.9131818 18.0158014,14.9318182 C16.6041234,17.1209545 14.7305342,18.6398939 12.3950339,19.4886364 C11.1234011,19.9507576 9.75771257,20.1818182 8.2979684,20.1818182 C5.99548533,20.1818182 3.89616253,19.5606061 2,18.3181818 C2.31602709,18.3636364 2.63957863,18.3863636 2.97065463,18.3863636 C4.88186606,18.3863636 6.58239278,17.7954545 8.07223476,16.6136364 C7.18434913,16.5984848 6.38675696,16.3257576 5.67945824,15.7954545 C4.97215952,15.2651515 4.49059443,14.5833333 4.23476298,13.75 C4.49059443,13.7954545 4.77840482,13.8181818 5.09819413,13.8181818 C5.41798345,13.8181818 5.74717833,13.7727273 6.08577878,13.6818182 C5.13769752,13.4848485 4.35515425,13.0075758 3.73814898,12.25 C3.12114372,11.4924242 2.81264108,10.6136364 2.81264108,9.61363636 L2.81264108,9.56818182 C3.36945071,9.88636364 3.98645598,10.0606061 4.66365688,10.0909091 C3.44469526,9.25757576 2.83521445,8.11363636 2.83521445,6.65909091 C2.83521445,5.90151515 3.02332581,5.20454545 3.39954853,4.56818182 C4.42287434,5.84090909 5.66817156,6.85984848 7.13544018,7.625 C8.6027088,8.39015152 10.1715576,8.81060606 11.8419865,8.88636364 C11.7817908,8.62878788 11.751693,8.31818182 11.751693,7.95454545 C11.751693,6.8030303 12.1504891,5.82575758 12.9480813,5.02272727 C13.7456734,4.21969697 14.7238525,3.81818182 15.8826185,3.81818182 C17.0413845,3.81818182 18.027088,4.25 18.8397291,5.11363636 C19.7577126,4.93181818 20.6305493,4.59848485 21.4582393,4.11363636 C21.1422122,5.08333333 20.5402558,5.84848485 19.6523702,6.40909091 C20.5252069,6.28787879 21.3077502,6.06818182 22,5.75 Z" id="Shape">
                                </path>
                            </g>
                        </g>
                    </g>
                </g>
            </g>
        </g>
    </g>
</svg>
