<?xml version="1.0" encoding="UTF-8"?>
<svg width="24px" height="24px" viewBox="0 0 24 24" version="1.1" xmlns="http://www.w3.org/2000/svg" xmlns:xlink="http://www.w3.org/1999/xlink">
    <title>
        YouTube
    </title>
    <g id="Templates" stroke="none" stroke-width="1" fill="none" fill-rule="evenodd">
        <g id="Mobile" transform="translate(-158.000000, -1537.000000)">
            <g id="footer/mobile" transform="translate(0.000000, 650.000000)">
                <g id="Group-2" transform="translate(0.000000, 414.000000)">
                    <g id="social" transform="translate(20.000000, 467.000000)" fill="#FFFFFF">
                        <g id="button/social-" transform="translate(132.000000, 0.000000)">
                            <g transform="translate(6.000000, 6.000000)" id="Icon">
                                <path d="M14.2619048,15.8888889 L14.2619048,18.2301587 C14.2619048,18.7328042 14.1164021,18.984127 13.8253968,18.984127 C13.6666667,18.984127 13.5013228,18.9047619 13.3293651,18.7460317 L13.3293651,15.3730159 C13.5013228,15.2142857 13.6666667,15.1349206 13.8253968,15.1349206 C14.1164021,15.1349206 14.2619048,15.3862434 14.2619048,15.8888889 Z M18.031746,15.8888889 L18.031746,16.4047619 L17.0396825,16.4047619 L17.0396825,15.8888889 C17.0396825,15.3862434 17.2050265,15.1349206 17.5357143,15.1349206 C17.8664021,15.1349206 18.031746,15.3862434 18.031746,15.8888889 Z M7.25793651,13.4484127 L8.4484127,13.4484127 L8.4484127,12.4166667 L4.95634921,12.4166667 L4.95634921,13.4484127 L6.1468254,13.4484127 L6.1468254,19.8174603 L7.25793651,19.8174603 L7.25793651,13.4484127 Z M10.4722222,19.8174603 L11.4642857,19.8174603 L11.4642857,14.3015873 L10.4722222,14.3015873 L10.4722222,18.5079365 C10.2473545,18.8253968 10.0505952,18.984127 9.88194444,18.984127 C9.71329365,18.984127 9.61904762,18.9047619 9.59920635,18.7460317 L9.59920635,14.3015873 L8.58730159,14.3015873 L8.58730159,18.6666667 C8.58730159,19.037037 8.62037037,19.3082011 8.68650794,19.4801587 C8.77910053,19.7579365 9.00066138,19.8968254 9.35119048,19.8968254 C9.70171958,19.8968254 10.0753968,19.6719577 10.4722222,19.2222222 L10.4722222,19.8174603 Z M15.2539683,18.1706349 L15.2539683,15.968254 C15.2539683,15.4126984 15.2208995,15.042328 15.1547619,14.8571429 C15.0357143,14.4470899 14.7810847,14.2420635 14.390873,14.2420635 C14.0006614,14.2420635 13.6468254,14.4404762 13.3293651,14.8373016 L13.3293651,12.4166667 L12.3373016,12.4166667 L12.3373016,19.8174603 L13.3293651,19.8174603 L13.3293651,19.281746 C13.6600529,19.6917989 14.0171958,19.8968254 14.4007937,19.8968254 C14.7843915,19.8968254 15.0357143,19.6851852 15.1547619,19.2619048 C15.2208995,19.0767196 15.2539683,18.712963 15.2539683,18.1706349 Z M19.0436508,18.0515873 L19.0436508,17.9126984 L18.0119048,17.9126984 C18.0119048,18.3227513 18.005291,18.547619 17.9920635,18.5873016 C17.9259259,18.8518519 17.7804233,18.984127 17.5555556,18.984127 C17.2116402,18.984127 17.0396825,18.7261905 17.0396825,18.2103175 L17.0396825,17.2380952 L19.0436508,17.2380952 L19.0436508,16.1071429 C19.0436508,14.8637566 18.547619,14.2420635 17.5555556,14.2420635 C17.0396825,14.2420635 16.6362434,14.4272487 16.3452381,14.797619 C16.1468254,15.0489418 16.047619,15.4854497 16.047619,16.1071429 L16.047619,18.031746 C16.047619,18.6269841 16.1534392,19.0568783 16.3650794,19.3214286 C16.6428571,19.7050265 17.0462963,19.8968254 17.5753968,19.8968254 C18.1044974,19.8968254 18.5079365,19.6984127 18.7857143,19.3015873 C18.9179894,19.1164021 18.9940476,18.9345238 19.0138889,18.7559524 C19.0337302,18.577381 19.0436508,18.3425926 19.0436508,18.0515873 Z M12.2579365,7.87301587 L12.2579365,5.51190476 C12.2579365,4.99603175 12.0958995,4.73809524 11.7718254,4.73809524 C11.4477513,4.73809524 11.2857143,4.99603175 11.2857143,5.51190476 L11.2857143,7.87301587 C11.2857143,8.37566138 11.4477513,8.62698413 11.7718254,8.62698413 C12.0958995,8.62698413 12.2579365,8.37566138 12.2579365,7.87301587 Z M19.9761905,12.3373016 C20.1746032,13.1706349 20.2738095,14.4537037 20.2738095,16.1865079 C20.2738095,17.9193122 20.1746032,19.2420635 19.9761905,20.1547619 C19.8703704,20.5912698 19.6554233,20.9583333 19.3313492,21.2559524 C19.0072751,21.5535714 18.6269841,21.7222222 18.1904762,21.7619048 C16.8280423,21.9206349 14.7645503,22 12,22 C9.23544974,22 7.17195767,21.9206349 5.80952381,21.7619048 C5.37301587,21.7222222 4.99272487,21.5535714 4.66865079,21.2559524 C4.34457672,20.9583333 4.12962963,20.5912698 4.02380952,20.1547619 C3.82539683,19.3082011 3.72619048,18.0152116 3.72619048,16.2757937 C3.72619048,14.5363757 3.82539683,13.223545 4.02380952,12.3373016 C4.11640212,11.8875661 4.32804233,11.5171958 4.65873016,11.2261905 C4.98941799,10.9351852 5.37301587,10.7632275 5.80952381,10.7103175 C7.17195767,10.5515873 9.23544974,10.4722222 12,10.4722222 C14.7645503,10.4722222 16.8280423,10.5515873 18.1904762,10.7103175 C18.6269841,10.7632275 19.010582,10.9351852 19.3412698,11.2261905 C19.6719577,11.5171958 19.8835979,11.8875661 19.9761905,12.3373016 Z M9.14285714,2 L10.2738095,2 L8.92460317,6.44444444 L8.92460317,9.48015873 L7.79365079,9.48015873 L7.79365079,6.44444444 C7.68783069,5.88888889 7.46296296,5.10185185 7.11904762,4.08333333 L6.4047619,2 L7.57539683,2 L8.36904762,4.93650794 L9.14285714,2 Z M13.2698413,5.73015873 L13.2698413,7.67460317 C13.2698413,8.93121693 12.7671958,9.55952381 11.7619048,9.55952381 C11.2592593,9.55952381 10.885582,9.39087302 10.640873,9.05357143 C10.396164,8.71626984 10.2738095,8.25661376 10.2738095,7.67460317 L10.2738095,5.73015873 C10.2738095,4.47354497 10.7698413,3.8452381 11.7619048,3.8452381 C12.2777778,3.8452381 12.6746032,4.03042328 12.952381,4.40079365 C13.1640212,4.71825397 13.2698413,5.16137566 13.2698413,5.73015873 Z M17,3.9047619 L17,9.48015873 L15.9880952,9.48015873 L15.9880952,8.86507937 C15.5912698,9.32804233 15.2159392,9.55952381 14.8621032,9.55952381 C14.5082672,9.55952381 14.2900132,9.44047619 14.2073413,9.20238095 C14.1246693,8.96428571 14.0833333,8.66666667 14.0833333,8.30952381 L14.0833333,3.9047619 L15.0952381,3.9047619 L15.0952381,8.01190476 C15.0952381,8.25 15.1018519,8.38227513 15.1150794,8.40873016 C15.1415344,8.5542328 15.2407407,8.62698413 15.4126984,8.62698413 C15.5846561,8.62698413 15.776455,8.47486772 15.9880952,8.17063492 L15.9880952,3.9047619 L17,3.9047619 Z" id="Shape">
                                </path>
                            </g>
                        </g>
                    </g>
                </g>
            </g>
        </g>
    </g>
</svg>
