<?xml version="1.0" standalone="no"?>
<!DOCTYPE svg PUBLIC "-//W3C//DTD SVG 20010904//EN"
 "http://www.w3.org/TR/2001/REC-SVG-20010904/DTD/svg10.dtd">
<svg version="1.0" xmlns="http://www.w3.org/2000/svg"
 width="310.000000pt" height="310.000000pt" viewBox="0 0 310.000000 310.000000"
 preserveAspectRatio="xMidYMid meet">
<metadata>
Created by potrace 1.11, written by Peter Selinger 2001-2013
</metadata>
<g transform="translate(0.000000,310.000000) scale(0.100000,-0.100000)"
fill="#000000" stroke="none">
<path d="M1200 2651 l0 -101 303 -1 c442 -1 487 -5 644 -64 328 -124 563 -402
634 -750 17 -85 18 -276 2 -363 -57 -300 -245 -556 -516 -702 -89 -48 -234
-97 -313 -106 -32 -4 -66 -8 -74 -10 -8 -1 -165 -3 -347 -3 l-333 -1 0 -100 0
-100 358 1 c196 0 380 4 407 9 28 5 67 12 89 15 61 10 184 53 266 92 192 92
354 233 477 416 198 295 255 663 156 1007 -64 221 -212 443 -398 595 -102 84
-315 195 -420 220 -11 2 -38 9 -60 14 -22 5 -53 13 -70 17 -16 4 -204 9 -417
11 l-388 5 0 -101z"/>
<path d="M200 2150 l0 -200 100 0 100 0 0 200 0 200 -100 0 -100 0 0 -200z"/>
<path d="M715 2331 c-157 -72 -152 -299 7 -366 70 -29 161 -13 217 38 57 53
76 158 42 232 -46 100 -165 143 -266 96z"/>
<path d="M1200 2150 l0 -200 100 0 100 0 0 200 0 200 -100 0 -100 0 0 -200z"/>
<path d="M215 1731 c-186 -86 -133 -365 72 -379 176 -11 279 194 165 330 -54
64 -158 86 -237 49z"/>
<path d="M700 1550 l0 -200 100 0 100 0 0 200 0 200 -100 0 -100 0 0 -200z"/>
<path d="M1215 1731 c-157 -72 -152 -299 7 -366 70 -29 161 -13 217 38 79 72
79 222 0 294 -58 53 -152 67 -224 34z"/>
<path d="M200 950 l0 -200 100 0 100 0 0 200 0 200 -100 0 -100 0 0 -200z"/>
<path d="M715 1131 c-157 -72 -152 -299 7 -366 70 -29 161 -13 217 38 57 53
76 158 42 232 -46 100 -165 143 -266 96z"/>
<path d="M1200 950 l0 -200 100 0 100 0 0 200 0 200 -100 0 -100 0 0 -200z"/>
</g>
</svg>
