<?xml version="1.0" standalone="no"?>
<!DOCTYPE svg PUBLIC "-//W3C//DTD SVG 20010904//EN"
 "http://www.w3.org/TR/2001/REC-SVG-20010904/DTD/svg10.dtd">
<svg version="1.0" xmlns="http://www.w3.org/2000/svg"
 width="512.000000pt" height="512.000000pt" viewBox="0 0 512.000000 512.000000"
 preserveAspectRatio="xMidYMid meet">
<metadata>
Created by potrace 1.11, written by Peter Selinger 2001-2013
</metadata>
<g transform="translate(0.000000,512.000000) scale(0.100000,-0.100000)"
fill="#000000" stroke="none">
<path d="M2480 4245 c-150 -79 -1636 -945 -1645 -959 -7 -11 -7 -21 0 -32 10
-15 277 -174 471 -280 119 -65 118 -65 349 65 98 56 115 62 155 58 37 -3 111
-42 400 -209 196 -113 375 -215 400 -228 77 -39 106 -30 353 113 121 70 224
127 230 127 6 0 103 -53 216 -119 265 -153 246 -144 301 -139 38 4 96 33 305
154 142 82 263 157 269 167 14 22 1 42 -45 68 l-35 21 -229 -133 c-203 -118
-233 -133 -274 -133 -42 0 -96 29 -636 340 -630 363 -632 364 -566 398 41 22
84 20 133 -5 23 -12 244 -138 492 -282 248 -143 472 -271 497 -284 87 -43 84
-45 464 175 104 60 194 117 200 126 7 11 7 21 0 32 -9 14 -1520 895 -1647 960
-59 30 -100 30 -158 -1z"/>
<path d="M868 3024 c-41 -26 -48 -52 -20 -76 9 -8 129 -79 266 -158 318 -182
300 -179 469 -82 179 102 185 105 232 100 30 -4 138 -62 425 -228 345 -201
390 -224 438 -228 52 -4 55 -3 281 127 125 72 231 131 234 131 3 0 104 -57
224 -127 l218 -128 65 1 65 0 245 143 c135 79 253 151 263 159 28 24 20 50
-23 77 l-41 26 -207 -119 c-114 -66 -221 -127 -239 -136 -44 -22 -87 -20 -142
7 -42 22 -325 184 -397 228 l-30 18 -219 -125 c-121 -69 -238 -130 -260 -136
-54 -15 -59 -13 -490 237 -315 182 -366 209 -412 213 -58 5 -57 6 -227 -93
-170 -99 -157 -101 -432 57 -120 70 -226 129 -234 132 -8 3 -32 -6 -52 -20z"/>
<path d="M872 2733 c-35 -21 -42 -30 -40 -50 3 -21 45 -49 273 -180 l270 -155
55 4 c46 4 74 16 179 77 141 84 176 96 226 82 20 -5 201 -105 402 -222 201
-117 384 -219 407 -226 32 -12 48 -12 81 -3 52 16 535 299 549 323 9 15 6 23
-17 43 -53 46 -57 44 -293 -92 -245 -142 -278 -153 -350 -116 -21 11 -203 115
-404 232 -441 256 -392 246 -605 124 -193 -109 -172 -112 -456 50 -123 71
-226 130 -229 131 -3 2 -24 -8 -48 -22z"/>
<path d="M3470 1811 c-78 -25 -131 -73 -155 -140 -12 -36 -15 -108 -15 -432
l0 -389 90 0 90 0 0 270 0 270 105 0 105 0 2 -267 3 -268 90 0 90 0 3 268 2
267 60 0 c45 0 74 7 110 25 l50 25 2 -292 3 -293 90 0 90 0 0 330 0 330 -202
3 -203 2 0 51 c0 70 29 99 100 99 l50 0 0 69 0 69 -50 7 c-94 13 -184 -16
-233 -75 -31 -37 -57 -117 -57 -177 l0 -43 -105 0 -105 0 0 34 c0 83 33 116
115 116 l45 0 0 64 c0 37 -5 68 -11 72 -17 10 -131 14 -159 5z"/>
<path d="M864 1762 c-54 -43 -55 -112 -3 -156 35 -30 67 -33 109 -11 37 19 50
43 50 90 0 76 -98 124 -156 77z"/>
<path d="M4129 1751 c-55 -55 -30 -148 45 -167 59 -15 120 37 120 102 0 28 -7
43 -32 65 -44 40 -93 39 -133 0z"/>
<path d="M177 1753 c-4 -3 -7 -208 -7 -455 l0 -449 93 3 92 3 3 183 2 182 174
0 c130 0 175 3 178 13 2 6 4 39 4 72 l-1 60 -177 3 -178 2 0 115 0 115 198 2
197 3 0 75 0 75 -286 3 c-157 1 -288 -1 -292 -5z"/>
<path d="M1933 1691 c-92 -56 -93 -57 -93 -117 l0 -54 -50 0 -51 0 3 -62 3
-63 48 -3 47 -3 0 -202 c1 -210 8 -256 47 -299 28 -32 80 -49 149 -49 102 0
104 1 104 82 l0 69 -50 0 c-38 0 -52 4 -60 19 -6 12 -10 95 -10 200 l0 180 58
3 57 3 0 60 0 60 -57 3 -58 3 0 104 c0 78 -3 105 -12 104 -7 0 -41 -18 -75
-38z"/>
<path d="M1432 1525 c-51 -16 -66 -27 -103 -78 l-28 -39 -31 48 c-16 26 -30
52 -30 56 0 4 -25 8 -55 8 l-55 0 0 -335 0 -335 90 0 90 0 0 215 c0 227 5 261
47 298 31 28 83 31 119 9 46 -29 54 -77 54 -316 l0 -206 91 0 90 0 -3 263 -3
262 -28 47 c-36 62 -82 96 -147 108 -29 5 -53 10 -54 9 0 0 -20 -6 -44 -14z"/>
<path d="M2831 1524 c-110 -30 -191 -108 -191 -185 0 -17 8 -19 85 -19 81 0
86 1 95 24 13 36 49 56 98 56 60 0 92 -33 92 -93 l0 -44 -97 -6 c-54 -3 -120
-13 -147 -22 -142 -51 -189 -213 -93 -322 66 -74 176 -94 273 -49 28 13 55 29
58 35 12 19 23 12 30 -19 l6 -31 87 3 c73 2 87 6 84 18 -3 8 -8 121 -11 250
-6 209 -8 240 -27 282 -23 50 -81 100 -136 117 -60 18 -150 20 -206 5z m179
-430 c0 -50 -3 -59 -34 -90 -29 -29 -41 -34 -79 -34 -62 0 -92 25 -92 78 0 42
23 77 60 93 11 4 48 8 83 8 l62 1 0 -56z"/>
<path d="M2489 1507 c-24 -13 -55 -40 -68 -60 -13 -20 -28 -34 -32 -31 -5 2
-21 27 -36 54 l-28 50 -52 0 -53 0 0 -335 0 -335 90 0 90 0 0 210 c0 168 3
217 15 240 24 46 52 60 122 60 l63 0 0 85 0 85 -33 0 c-19 0 -54 -10 -78 -23z"/>
<path d="M4558 1516 c-122 -44 -198 -171 -198 -330 0 -148 60 -262 166 -316
63 -31 181 -40 248 -17 89 30 156 105 171 190 l7 37 -86 0 c-69 0 -86 -3 -86
-15 0 -8 -12 -29 -27 -45 -54 -60 -152 -48 -190 23 -14 25 -18 56 -18 142 0
86 4 117 18 142 19 36 63 63 102 63 55 0 115 -55 115 -105 0 -12 15 -15 85
-15 l85 0 0 33 c0 46 -45 131 -88 167 -20 16 -56 36 -81 45 -54 18 -173 19
-223 1z"/>
<path d="M835 1507 c-3 -7 -4 -156 -3 -332 l3 -320 88 -3 87 -3 0 336 0 335
-85 0 c-60 0 -87 -4 -90 -13z"/>
</g>
</svg>
