<svg xmlns="http://www.w3.org/2000/svg" viewBox="0 0 103.918 50.784" version="1.0" width="500" height="500">
  <path style="fill:#00a149;fill-opacity:1;fill-rule:evenodd;stroke:#000;stroke-width:0;stroke-linecap:butt;stroke-linejoin:miter;stroke-miterlimit:4;stroke-dasharray:none;stroke-opacity:1" d="M552.152 554.556h10.632c3.933 0 5.22 1.84 6.469 3.734l12.508 18.973c.145.237.341.142.46 0l11.353-17.765c1.858-2.907 3.976-4.891 8.86-4.891h28.652c4.01 0 12.074 4.247 12.074 13.825 0 7.223-5.463 13.233-10.632 13.233-.199-.036-.26.205.103.743l6.645 9.84h-10.452c-3.922 0-6.108-2.209-7.545-4.416l-1.366-2.099c-1.012-1.751-3.827-3.554-6.157-3.554h-12.072l4.505-6.718c2.046-3.051 4.403-3.812 9.218-3.812h11.552c5.143 0 4.682-6.51.104-6.51h-17.567c-2.249 0-5.631 1.234-8.326 5.456l-10.813 16.94c-3.728 5.944-12.398 6.927-16.787 0l-21.418-32.98z" transform="translate(-546.752 -548.117)"/>
</svg>
