<?xml version="1.0" encoding="utf-8"?>
<!-- Generator: Adobe Illustrator 21.1.0, SVG Export Plug-In . SVG Version: 6.00 Build 0)  -->
<!DOCTYPE svg PUBLIC "-//W3C//DTD SVG 1.1//EN" "http://www.w3.org/Graphics/SVG/1.1/DTD/svg11.dtd">
<svg version="1.1" id="Layer_1" xmlns="http://www.w3.org/2000/svg" xmlns:xlink="http://www.w3.org/1999/xlink" x="0px" y="0px"
	 width="360px" height="360px" viewBox="0 0 360 360" enable-background="new 0 0 360 360" xml:space="preserve">
<g>
	<path fill-rule="evenodd" clip-rule="evenodd" fill="#FFFFFF" d="M0,0c0,120,0,240,0,360c120,0,240,0,360,0c0-120,0-240,0-360
		C240,0,120,0,0,0z"/>
	<g>
		<path opacity="3.300000e-03" fill-rule="evenodd" clip-rule="evenodd" fill="#040507" d="M100.4,249c-44,25.4-44,66.6,0,92
			c44,25.4,115.3,25.4,159.2,0c44-25.4,44-66.6,0-92C215.6,223.6,144.4,223.6,100.4,249z"/>
		<path opacity="6.700000e-03" fill-rule="evenodd" clip-rule="evenodd" fill="#080A0D" d="M105.7,252.1c-41,23.7-41,62.1,0,85.8
			c41,23.7,107.5,23.7,148.6,0c41-23.7,41-62.1,0-85.8C213.3,228.4,146.7,228.4,105.7,252.1z"/>
		<path opacity="1.000000e-02" fill-rule="evenodd" clip-rule="evenodd" fill="#0B0E14" d="M111.1,255.1c-38.1,22-38.1,57.7,0,79.6
			c38.1,22,99.8,22,137.9,0c38.1-22,38.1-57.6,0-79.6C210.9,233.2,149.1,233.2,111.1,255.1z"/>
		<path opacity="1.330000e-02" fill-rule="evenodd" clip-rule="evenodd" fill="#0F131B" d="M116.4,258.2
			c-35.1,20.3-35.1,53.2,0,73.5c35.1,20.3,92.1,20.3,127.2,0c35.1-20.3,35.1-53.2,0-73.5C208.5,237.9,151.5,237.9,116.4,258.2z"/>
		<path opacity="1.670000e-02" fill-rule="evenodd" clip-rule="evenodd" fill="#131822" d="M121.7,261.3
			c-32.2,18.6-32.2,48.7,0,67.3c32.2,18.6,84.4,18.6,116.6,0c32.2-18.6,32.2-48.7,0-67.3C206.1,242.7,153.9,242.7,121.7,261.3z"/>
		<path opacity="2.000000e-02" fill-rule="evenodd" clip-rule="evenodd" fill="#171D29" d="M127.1,264.4
			c-29.2,16.9-29.2,44.3,0,61.2c29.2,16.9,76.6,16.9,105.9,0c29.2-16.9,29.2-44.3,0-61.2C203.7,247.5,156.3,247.5,127.1,264.4z"/>
		<path opacity="2.330000e-02" fill-rule="evenodd" clip-rule="evenodd" fill="#1B2230" d="M132.4,267.5c-26.3,15.2-26.3,39.8,0,55
			c26.3,15.2,68.9,15.2,95.2,0c26.3-15.2,26.3-39.8,0-55C201.3,252.3,158.7,252.3,132.4,267.5z"/>
		<path opacity="2.670000e-02" fill-rule="evenodd" clip-rule="evenodd" fill="#1F2737" d="M137.7,270.6
			c-23.3,13.5-23.3,35.3,0,48.8c23.3,13.5,61.2,13.5,84.5,0c23.3-13.5,23.3-35.3,0-48.8C198.9,257.1,161.1,257.1,137.7,270.6z"/>
		<path opacity="3.000000e-02" fill-rule="evenodd" clip-rule="evenodd" fill="#232C3F" d="M143.1,273.6
			c-20.4,11.8-20.4,30.9,0,42.7c20.4,11.8,53.5,11.8,73.9,0c20.4-11.8,20.4-30.9,0-42.7C196.5,261.8,163.5,261.8,143.1,273.6z"/>
		<path opacity="3.330000e-02" fill-rule="evenodd" clip-rule="evenodd" fill="#273246" d="M148.4,276.7
			c-17.5,10.1-17.5,26.4,0,36.5c17.5,10.1,45.8,10.1,63.2,0c17.5-10.1,17.5-26.4,0-36.5C194.2,266.6,165.9,266.6,148.4,276.7z"/>
		<path opacity="3.670000e-02" fill-rule="evenodd" clip-rule="evenodd" fill="#2B374D" d="M153.7,279.8c-14.5,8.4-14.5,22,0,30.3
			c14.5,8.4,38,8.4,52.5,0c14.5-8.4,14.5-22,0-30.3C191.8,271.4,168.2,271.4,153.7,279.8z"/>
		<path opacity="4.000000e-02" fill-rule="evenodd" clip-rule="evenodd" fill="#2F3C54" d="M159.1,282.9c-11.6,6.7-11.6,17.5,0,24.2
			c11.6,6.7,30.3,6.7,41.9,0c11.6-6.7,11.6-17.5,0-24.2C189.4,276.2,170.6,276.2,159.1,282.9z"/>
		<path opacity="4.330000e-02" fill-rule="evenodd" clip-rule="evenodd" fill="#34415C" d="M164.4,286c-8.6,5-8.6,13,0,18
			c8.6,5,22.6,5,31.2,0c8.6-5,8.6-13,0-18C187,281,173,281,164.4,286z"/>
		<path opacity="4.670000e-02" fill-rule="evenodd" clip-rule="evenodd" fill="#384763" d="M169.7,289c-5.7,3.3-5.7,8.6,0,11.9
			c5.7,3.3,14.9,3.3,20.5,0c5.7-3.3,5.7-8.6,0-11.9C184.6,285.8,175.4,285.8,169.7,289z"/>
	</g>
	<g>
		<polygon fill-rule="evenodd" clip-rule="evenodd" fill="#2C3E50" points="264,151 258.6,147.9 86.5,247.3 91.9,250.4 		"/>
		<polygon fill-rule="evenodd" clip-rule="evenodd" fill="#2C3E50" points="91.9,250.4 86.5,247.3 86.5,255.1 91.9,258.3 		"/>
		<polygon fill-rule="evenodd" clip-rule="evenodd" fill="#3D566E" points="264,158.9 264,151 91.9,250.4 91.9,258.3 		"/>
	</g>
	<g>
		<polygon fill-rule="evenodd" clip-rule="evenodd" fill="#2C3E50" points="296.3,169.7 290.9,166.6 118.8,265.9 124.2,269 		"/>
		<polygon fill-rule="evenodd" clip-rule="evenodd" fill="#2C3E50" points="124.2,269 118.8,265.9 118.8,273.8 124.2,276.9 		"/>
		<polygon fill-rule="evenodd" clip-rule="evenodd" fill="#3D566E" points="296.3,177.6 296.3,169.7 124.2,269 124.2,276.9 		"/>
	</g>
	<path fill-rule="evenodd" clip-rule="evenodd" fill="#2C3E50" d="M248.1,177l0.6-0.3l0.6-0.3l0.6-0.2l0.6-0.1l0.6,0l0.5,0.1
		l0.5,0.1l0.5,0.2l5,2.9l-0.5-0.2l-0.5-0.1l-0.5-0.1l-0.6,0l-0.6,0.1l-0.6,0.2l-0.6,0.3l-0.6,0.3l-0.7,0.4l-0.6,0.5l-0.6,0.5
		l-0.6,0.6l-0.6,0.6l-0.5,0.7l-0.5,0.7l-0.5,0.7l0,0h0l-0.4,0.8l-0.4,0.8l-0.3,0.8l-0.3,0.8l-0.2,0.8l-0.2,0.8l-0.1,0.8l0,0.8l0,0.7
		l0.1,0.7l0.2,0.6l0.2,0.6l0.3,0.5l0.3,0.4l0.4,0.4l0.4,0.3l0,0l-5-2.9l0,0l-0.4-0.3l-0.4-0.4l-0.3-0.4l-0.3-0.5l-0.2-0.6l-0.2-0.6
		l-0.1-0.7l0-0.7l0-0.8l0.1-0.8l0.2-0.8l0.2-0.8l0.3-0.8l0.3-0.8l0.4-0.8l0.4-0.8h0l0,0l0.5-0.7l0.5-0.7l0.5-0.7l0.6-0.6l0.6-0.6
		l0.6-0.5l0.6-0.5L248.1,177L248.1,177z M155.8,238.1l-0.5-0.2l-0.5-0.1l-0.5-0.1l-0.5,0l-0.6,0.1l-0.6,0.2l-0.6,0.3l-0.6,0.3
		l-0.7,0.4l-0.6,0.5l-0.6,0.5l-0.6,0.6l-0.6,0.6l-0.5,0.7l-0.5,0.7l-0.5,0.7v0l0,0l-0.4,0.8l-0.4,0.8l-0.3,0.8l-0.3,0.8l-0.2,0.8
		l-0.2,0.8l-0.1,0.8l0,0.8l0,0.7l0.1,0.7l0.2,0.6l0.2,0.6l0.3,0.5l0.3,0.4l0.4,0.4l0.4,0.3l0,0l-5-2.9l0,0l-0.4-0.3l-0.4-0.4
		l-0.3-0.4l-0.3-0.5l-0.2-0.6l-0.2-0.6l-0.1-0.7l0-0.7l0-0.8l0.1-0.8l0.2-0.8l0.2-0.8l0.3-0.8l0.3-0.8l0.4-0.8l0.4-0.8h0l0,0
		l0.5-0.7l0.5-0.7l0.5-0.7l0.6-0.6l0.6-0.6l0.6-0.5l0.6-0.5l0.7-0.4l0.6-0.3l0.6-0.3l0.6-0.2l0.6-0.1l0.5,0l0.5,0.1l0.5,0.1l0.5,0.2
		L155.8,238.1L155.8,238.1z M173.9,227.7l-0.5-0.2l-0.5-0.1l-0.5-0.1l-0.5,0l-0.6,0.1l-0.6,0.2l-0.6,0.3l-0.6,0.3l-0.7,0.4l-0.6,0.5
		l-0.6,0.5l-0.6,0.6l-0.6,0.6l-0.5,0.7l-0.5,0.7l-0.5,0.7l0,0h0l-0.4,0.8l-0.4,0.8l-0.3,0.8l-0.3,0.8l-0.2,0.8l-0.2,0.8l-0.1,0.8
		l0,0.8l0,0.7l0.1,0.7l0.2,0.6l0.2,0.6l0.3,0.5l0.3,0.4l0.4,0.4l0.4,0.3l0,0l-5-2.9l0,0l-0.4-0.3l-0.4-0.4l-0.3-0.4l-0.3-0.5
		l-0.2-0.6l-0.2-0.6l-0.1-0.7l0-0.7l0-0.8l0.1-0.8l0.2-0.8l0.2-0.8l0.3-0.8l0.3-0.8l0.4-0.8l0.4-0.8h0l0,0l0.5-0.7l0.5-0.7l0.5-0.7
		l0.6-0.6l0.6-0.6l0.6-0.5l0.6-0.5l0.7-0.4l0.6-0.3l0.6-0.3l0.6-0.2l0.6-0.1l0.6,0l0.5,0.1l0.5,0.1l0.4,0.2L173.9,227.7L173.9,227.7
		z M239.1,189.6l-0.5-0.1l-0.5-0.1l-0.6,0l-0.6,0.1l-0.6,0.2l-0.6,0.3l-0.6,0.3l-0.7,0.4l-0.6,0.5l-0.6,0.5l-0.6,0.6L232,193
		l-0.5,0.7l-0.5,0.7l-0.5,0.7l0,0l0,0l-0.4,0.8l-0.4,0.8l-0.3,0.8l-0.3,0.8l-0.2,0.8l-0.2,0.8l-0.1,0.8l0,0.8l0,0.7l0.1,0.7l0.2,0.6
		l0.2,0.6l0.3,0.5l0.3,0.4l0.4,0.4l0.4,0.3l0,0l-5-2.9l0,0l-0.4-0.3l-0.4-0.4l-0.3-0.4l-0.3-0.5l-0.2-0.6l-0.2-0.6l-0.1-0.7l0-0.7
		l0-0.8l0.1-0.8l0.2-0.8l0.2-0.8l0.3-0.8l0.3-0.8l0.4-0.8l0.4-0.8h0l0,0l0.5-0.7l0.5-0.7l0.5-0.7l0.6-0.6l0.6-0.6l0.6-0.5l0.6-0.5
		l0.7-0.4l0.6-0.3l0.6-0.3l0.6-0.2l0.6-0.1l0.6,0l0.5,0.1l0.5,0.1l0.4,0.2l5,2.9L239.1,189.6z"/>
	<path fill-rule="evenodd" clip-rule="evenodd" fill="#4B6680" d="M151.4,238.6c-1.8,1-3.4,2.8-4.5,4.8v0l0,0
		c-1.2,2-1.9,4.3-1.9,6.3c0,2,0.7,3.5,1.9,4.1l0,0c1.2,0.7,2.8,0.6,4.5-0.5c1.8-1,3.4-2.8,4.5-4.8l0,0c1.2-2,1.9-4.3,1.9-6.3
		c0-2-0.7-3.5-1.9-4.1l-0.1-0.1C154.7,237.5,153.1,237.6,151.4,238.6z"/>
	<path fill-rule="evenodd" clip-rule="evenodd" fill="#4B6680" d="M169.4,228.2c-1.8,1-3.4,2.8-4.5,4.8v0l0,0
		c-1.2,2-1.9,4.3-1.9,6.3c0,2,0.7,3.5,1.9,4.1l0,0c1.2,0.7,2.8,0.6,4.5-0.5c1.8-1,3.4-2.8,4.5-4.8l0,0c1.2-2,1.9-4.3,1.9-6.3
		c0-2-0.7-3.5-1.9-4.1l-0.1-0.1C172.7,227.1,171.1,227.2,169.4,228.2z"/>
	<path fill-rule="evenodd" clip-rule="evenodd" fill="#4B6680" d="M253.1,179.9c-1.8,1-3.4,2.8-4.5,4.8l0,0h0
		c-1.2,2-1.9,4.3-1.9,6.3c0,2,0.7,3.5,1.9,4.1l0,0c1.2,0.7,2.8,0.6,4.5-0.5c1.8-1,3.4-2.8,4.5-4.8l0,0c1.2-2,1.9-4.3,1.9-6.3
		c0-2-0.7-3.5-1.9-4.1l-0.1-0.1C256.4,178.8,254.8,178.9,253.1,179.9z"/>
	<polygon fill-rule="evenodd" clip-rule="evenodd" fill="#677475" points="277.3,171 217.3,136.3 217.3,141.6 277.3,176.2 	"/>
	<polygon fill-rule="evenodd" clip-rule="evenodd" fill="#677475" points="277.3,176.2 217.3,141.6 217.4,141.9 217.4,142.1 
		217.5,142.3 217.7,142.4 277.7,177 277.6,176.9 277.4,176.7 277.4,176.5 	"/>
	<polygon fill-rule="evenodd" clip-rule="evenodd" fill="#899EA3" points="279.5,143 219.5,108.3 219.3,108.3 219.1,108.3 
		218.9,108.3 218.6,108.4 218.3,108.6 218.1,108.8 217.9,109.1 217.7,109.4 217.5,109.7 217.4,110 217.4,110.3 217.3,110.6 
		217.3,113.1 217.3,124.2 277.3,158.9 277.3,147.7 277.3,145.3 277.4,145 277.4,144.6 277.6,144.3 277.7,144 277.9,143.7 
		278.1,143.5 278.4,143.3 278.6,143.1 278.9,143 279.1,142.9 279.3,142.9 	"/>
	<polygon fill-rule="evenodd" clip-rule="evenodd" fill="#677475" points="129.7,188.4 129.7,195.2 189.7,229.9 189.7,223.1 
		189.6,222.8 189.6,222.6 189.5,222.4 189.3,222.2 129.3,187.6 129.4,187.7 129.6,187.9 129.6,188.1 	"/>
	<polygon fill-rule="evenodd" clip-rule="evenodd" fill="#99ABB0" points="277.3,158.9 217.3,124.2 81.6,202.6 141.6,237.2 	"/>
	<polygon fill-rule="evenodd" clip-rule="evenodd" fill="#2C3E50" points="119.5,213.1 119.5,214.8 140.7,227 140.7,225.3 	"/>
	<polygon fill-rule="evenodd" clip-rule="evenodd" fill="#3D566E" points="140.7,226 120.4,214.3 119.5,214.8 140.7,227 	"/>
	<path fill-rule="evenodd" clip-rule="evenodd" fill="#677475" d="M183.3,221.4l0,0.3l0.1,0.2l0.1,0.2l0.2,0.1l-2.9-1.7
		c0-0.2-0.1-0.5-0.1-0.7L183.3,221.4L183.3,221.4z M156.5,206.3l-0.3,0.1l-32.9-19l-0.2-0.1l-0.1-0.2l-0.1-0.2l0-0.3l33.9,19.6
		L156.5,206.3z"/>
	<path fill-rule="evenodd" clip-rule="evenodd" fill="#677475" d="M178.1,210.1l-60.3-34.8l0.6,0.4l0.6,0.4l0.5,0.5l0.5,0.5l0.5,0.6
		l0.4,0.6l0.4,0.6l0.3,0.7l0.3,0.7l0.3,0.8l0.2,0.8l0.2,0.9l0.2,0.9l0.1,0.9l0.1,1l0,1l33.9,19.6l0.4-0.2l0.7-0.2l0.7-0.2l0.7-0.1
		l0.7-0.1l0.7,0l0.7,0l0.6,0.1l0.6,0.1l0.6,0.1l0.6,0.2l0.6,0.2l0.5,0.3l11.5,6.7l0,0c2.2,1.2,3.7,3.6,4.2,6.9l2.6,1.5l0-1l-0.1-1
		l-0.1-0.9l-0.2-0.9l-0.2-0.9l-0.2-0.8l-0.3-0.8l-0.3-0.7l-0.4-0.7l-0.4-0.6l-0.4-0.6l-0.5-0.6l-0.5-0.5l-0.5-0.5l-0.6-0.4
		L178.1,210.1z"/>
	<polygon fill-rule="evenodd" clip-rule="evenodd" fill="#E6EAEB" points="141.5,245.5 81.2,210.7 81.2,211 81.3,211.2 81.4,211.4 
		81.6,211.5 141.9,246.4 141.8,246.2 141.6,246 141.6,245.8 	"/>
	<path fill-rule="evenodd" clip-rule="evenodd" fill="#E6EAEB" d="M184.5,222.2L184.5,222.2l-3.9-2.2v0L184.5,222.2L184.5,222.2z
		 M156.8,206.2l-32.6-18.8v0L156.8,206.2L156.8,206.2z"/>
	<path fill-rule="evenodd" clip-rule="evenodd" fill="#9C9C9C" d="M274.7,142V95.4c0-0.8-0.6-1.2-1.3-0.7l-116.9,67.5
		c-1.8,1-3.4,2.6-4.7,4.5l0,0c-1.3,1.9-2.3,4.1-2.8,6.4l-7.2,33.8l0,0.1c-0.1,0.4-0.2,0.8-0.2,1.3c0,0.4-0.1,0.9-0.1,1.3v36.2
		c0,0.8,0.6,1.2,1.3,0.7c20.8-12,120.5-69.5,131.8-76.1V142z"/>
	<path fill-rule="evenodd" clip-rule="evenodd" fill="#29648C" d="M181.9,155.9l-22.3,12.9c-1,0.6-2,1.5-2.7,2.6l0,0
		c-0.8,1.1-1.3,2.4-1.6,3.7l0,0l-5.9,27.8c-0.2,0.9,0.2,1.5,0.9,1.3c0.1,0,0.2-0.1,0.4-0.1v0l31.4-18.1c0.7-0.4,1.3-1.4,1.3-2.2
		v-27.1C183.2,155.8,182.6,155.4,181.9,155.9z"/>
	<polygon fill-rule="evenodd" clip-rule="evenodd" fill="#677475" points="174.3,195.7 184,190.1 185.1,190.7 175.4,196.3 	"/>
	<polygon fill-rule="evenodd" clip-rule="evenodd" fill="#4E5A5E" points="175.4,196.3 185.1,190.7 185.1,193.1 175.4,198.7 	"/>
	<polygon fill-rule="evenodd" clip-rule="evenodd" fill="#677475" points="174.3,198.1 174.3,195.7 175.4,196.3 175.4,198.7 	"/>
	<path fill-rule="evenodd" clip-rule="evenodd" fill="#3D566E" d="M230.6,198l46.8-27v5.2c0,0.8,0.6,1.1,1.3,0.7
		c0.7-0.4,1.3-1.4,1.3-2.2c0-11.6,0-16.9,0-28.5v-2.4c0-0.8-0.6-1.1-1.3-0.7c-0.7,0.4-1.3,1.4-1.3,2.2v2.4v11.2l-135.7,78.3v12.1
		l46.8-27c0.7-0.4,1.3-0.1,1.3,0.7v6.8l39.7-22.9v-6.8C229.3,199.4,229.9,198.4,230.6,198z"/>
	<path fill-rule="evenodd" clip-rule="evenodd" fill="#EBF1F5" d="M96.2,127.2l-0.3,0.2l-0.3,0.2l-0.3,0.2l-0.3,0.2l-0.3,0.2
		l-0.3,0.3l-0.3,0.3l-0.3,0.3l-0.3,0.3l-0.3,0.3l-0.3,0.3l-0.3,0.3l-0.3,0.3l-0.3,0.3l-0.3,0.4l-0.2,0.4l0,0l-0.2,0.4l-0.2,0.4
		l-0.2,0.4l-0.2,0.4l-0.2,0.4l-0.2,0.4l-0.2,0.4l-0.2,0.4l-0.2,0.4l-0.2,0.4l-0.2,0.4l-0.1,0.4l-0.1,0.4l-0.1,0.4l-0.1,0.4l-0.1,0.4
		l-7.2,33.8l0,0.1l0,0.2l0,0.2l0,0.2l0,0.2l0,0.2l0,0.2l0,0.2l0,0.2l0,0.2l0,0.2l0,0.2l0,0.2l0,0.2l0,0.2v0.2l0,0.1v36.2l60.3,34.8
		c0-12.1,0-24.1,0-36.2c0-0.1,0-0.1,0-0.2c0-0.1,0-0.1,0-0.2c0-0.1,0-0.1,0-0.2c0-0.1,0-0.1,0-0.2c0-0.1,0-0.1,0-0.2
		c0-0.1,0-0.1,0-0.2c0-0.1,0-0.1,0-0.2c0-0.1,0-0.1,0-0.2c0-0.1,0-0.1,0-0.2c0-0.1,0-0.1,0-0.2c0-0.1,0-0.1,0-0.2c0-0.1,0-0.1,0-0.2
		c0-0.1,0-0.1,0-0.2c0-0.1,0-0.1,0-0.2c0-0.1,0-0.1,0-0.2c0-0.1,0-0.1,0-0.2c0,0,0-0.1,0-0.1L149,173l0.1-0.4l0.1-0.4l0.1-0.4
		l0.1-0.4l0.1-0.4l0.2-0.4l0.2-0.4l0.2-0.4l0.2-0.4l0.2-0.4l0.2-0.4l0.2-0.4l0.2-0.4l0.2-0.4l0.2-0.4l0.2-0.4l0,0
		c0.1-0.1,0.2-0.2,0.3-0.4c0.1-0.1,0.2-0.2,0.3-0.3c0.1-0.1,0.2-0.2,0.3-0.3s0.2-0.2,0.3-0.3c0.1-0.1,0.2-0.2,0.3-0.3
		c0.1-0.1,0.2-0.2,0.3-0.3c0.1-0.1,0.2-0.2,0.3-0.3c0.1-0.1,0.2-0.2,0.3-0.3c0.1-0.1,0.2-0.2,0.3-0.3c0.1-0.1,0.2-0.2,0.3-0.3
		c0.1-0.1,0.2-0.2,0.3-0.3c0.1-0.1,0.2-0.2,0.3-0.2c0.1-0.1,0.2-0.2,0.3-0.2c0.1-0.1,0.2-0.2,0.3-0.2c0.1-0.1,0.2-0.1,0.3-0.2
		c0.1-0.1,0.2-0.1,0.3-0.2l116.9-67.5c0.2-0.1,0.3-0.2,0.5-0.2l-0.2-0.1l-59.8-34.5l-0.2-0.1l-0.2,0l-0.2,0.1l-0.3,0.1L96.2,127.2z"
		/>
	<polygon fill-rule="evenodd" clip-rule="evenodd" fill="#C5CCD1" points="91.2,204.3 92.4,203.6 92.7,203.4 93,203.1 93.2,202.8 
		93.5,202.4 93.6,202 93.8,201.5 93.8,200.9 93.9,200.4 93.8,199.7 93.8,199.1 93.6,198.5 93.5,197.9 93.2,197.2 93,196.6 92.7,196 
		92.4,195.4 92,194.8 91.6,194.2 91.2,193.7 90.8,193.2 90.3,192.7 89.8,192.3 89.3,191.9 88.8,191.6 88.3,191.3 87.8,191.1 
		87.3,191 86.8,190.9 86.4,190.9 86,191 85.6,191.1 85.2,191.2 84,191.9 84.4,191.8 84.8,191.7 85.2,191.6 85.6,191.6 86.1,191.7 
		86.6,191.8 87.1,192 87.6,192.3 88.1,192.6 88.6,193 89.1,193.4 89.6,193.9 90,194.4 90.4,194.9 90.8,195.5 91.2,196.1 91.5,196.7 
		91.8,197.3 92.1,197.9 92.3,198.5 92.4,199.2 92.6,199.8 92.6,200.4 92.7,201.1 92.6,201.6 92.6,202.2 92.4,202.7 92.3,203.1 
		92.1,203.5 91.8,203.8 91.5,204.1 	"/>
	<path fill-rule="evenodd" clip-rule="evenodd" fill="#FFFFFF" d="M87.6,204c2.8,1.6,5.1,0.3,5.1-2.9c0-3.2-2.3-7.1-5.1-8.8
		c-2.8-1.6-5.1-0.3-5.1,2.9C82.6,198.4,84.8,202.4,87.6,204z"/>
	<path fill-rule="evenodd" clip-rule="evenodd" fill="#DADFE3" d="M103.8,202.1l0,9.5c0,0.2,0.1,0.4,0.3,0.4l3.3,1.9l0-9.9l-3.3-1.9
		C104,202,103.9,202,103.8,202.1z"/>
	<polygon fill-rule="evenodd" clip-rule="evenodd" fill="#DADFE3" points="113.1,217.2 113.1,207.3 109.6,205.2 109.6,215.2 	"/>
	<polygon fill-rule="evenodd" clip-rule="evenodd" fill="#DADFE3" points="115.3,208.6 115.3,218.5 118.9,220.5 118.9,210.6 	"/>
	<polygon fill-rule="evenodd" clip-rule="evenodd" fill="#DADFE3" points="101.6,210.6 101.6,200.6 98,198.6 98,208.5 	"/>
	<polygon fill-rule="evenodd" clip-rule="evenodd" fill="#DADFE3" points="124.4,223.7 124.4,213.8 120.8,211.7 120.8,221.7 	"/>
	<polygon fill-rule="evenodd" clip-rule="evenodd" fill="#C5CCD1" points="136.1,230.1 137.2,229.4 137.6,229.2 137.9,228.9 
		138.1,228.6 138.3,228.2 138.5,227.8 138.6,227.3 138.7,226.8 138.7,226.2 138.7,225.6 138.6,224.9 138.5,224.3 138.3,223.7 
		138.1,223 137.9,222.4 137.6,221.8 137.2,221.2 136.9,220.6 136.5,220 136.1,219.5 135.6,219 135.2,218.5 134.7,218.1 134.2,217.7 
		133.7,217.4 133.2,217.1 132.7,216.9 132.2,216.8 131.7,216.7 131.3,216.7 130.8,216.8 130.5,216.9 130.1,217.1 128.9,217.7 
		129.3,217.6 129.7,217.5 130.1,217.4 130.5,217.4 131,217.5 131.5,217.6 132,217.8 132.5,218.1 133,218.4 133.5,218.8 134,219.2 
		134.4,219.7 134.9,220.2 135.3,220.7 135.7,221.3 136.1,221.9 136.4,222.5 136.7,223.1 136.9,223.7 137.1,224.4 137.3,225 
		137.4,225.6 137.5,226.2 137.5,226.9 137.5,227.4 137.4,228 137.3,228.5 137.1,228.9 136.9,229.3 136.7,229.6 136.4,229.9 	"/>
	<path fill-rule="evenodd" clip-rule="evenodd" fill="#FFFFFF" d="M132.5,229.8c2.8,1.6,5.1,0.3,5.1-2.9c0-3.2-2.3-7.1-5.1-8.8
		c-2.8-1.6-5.1-0.3-5.1,2.9C127.4,224.2,129.7,228.2,132.5,229.8z"/>
	<polygon fill-rule="evenodd" clip-rule="evenodd" fill="#9C9C9C" points="120.8,211.7 124.4,213.8 124.4,219.6 120.8,221.7 	"/>
	<polygon fill-rule="evenodd" clip-rule="evenodd" fill="#9C9C9C" points="115.3,208.6 118.9,210.6 118.9,216.4 115.3,218.5 	"/>
	<polygon fill-rule="evenodd" clip-rule="evenodd" fill="#9C9C9C" points="109.6,205.2 113.1,207.3 113.1,213.1 109.6,215.2 	"/>
	<polygon fill-rule="evenodd" clip-rule="evenodd" fill="#9C9C9C" points="103.8,201.9 107.3,204 107.3,209.8 103.8,211.8 	"/>
	<polygon fill-rule="evenodd" clip-rule="evenodd" fill="#9C9C9C" points="98,198.6 101.6,200.6 101.6,206.5 98,208.5 	"/>
	<path fill-rule="evenodd" clip-rule="evenodd" fill="#3DB7E4" d="M86,174.5l-0.6,12l51.5,29.7c0.2-5.5,0.4-6.5,0.6-12l7.2-33.8
		l-51.5-29.7C90.8,152,88.4,163.2,86,174.5z"/>
	<polygon fill-rule="evenodd" clip-rule="evenodd" fill="#4B6680" points="75.4,202.5 81.2,199.1 81.2,202.3 141.5,237.2 
		147.4,233.8 150.2,235.4 141.3,240.5 	"/>
	<polygon fill-rule="evenodd" clip-rule="evenodd" fill="#3D566E" points="141.3,240.5 150.2,235.4 150.2,256 141.3,261.2 	"/>
	<polygon fill-rule="evenodd" clip-rule="evenodd" fill="#2C3E50" points="75.4,223.2 75.4,202.5 141.3,240.5 141.3,261.2 	"/>
	<path fill-rule="evenodd" clip-rule="evenodd" fill="#0088CE" d="M88.6,162.3L86,174.5l-0.6,12l51.5,29.7l0.3-11.4
		c0.1-2.9,1.6-6.7,1.7-8.4L120,185.6l-5.5-8.3L88.6,162.3z"/>
	<path fill-rule="evenodd" clip-rule="evenodd" fill="#205E87" d="M150.9,195l-1.7,7.9c-0.2,0.9,0.2,1.5,0.9,1.3
		c0.1,0,0.2-0.1,0.4-0.1l0,0l31.4-18.1c0.7-0.4,1.3-1.4,1.3-2.2v-7.3L150.9,195z"/>
	<path fill-rule="evenodd" clip-rule="evenodd" fill="#29648C" d="M224,131.5l-27.5,15.9c-0.9,0.5-1.6,1.8-1.6,2.8v50.2
		c0,1,0.7,1.4,1.6,0.9l27.5-15.9c0.9-0.5,1.6-1.7,1.6-2.8v-50.3C225.6,131.4,224.9,131,224,131.5z"/>
	<path fill-rule="evenodd" clip-rule="evenodd" fill="#29648C" d="M259.8,110.9l-27.5,15.9c-0.9,0.5-1.6,1.7-1.6,2.8v33.4
		c0,1,0.7,1.4,1.6,0.9l27.5-15.9c0.9-0.5,1.6-1.7,1.6-2.8v-33.4C261.4,110.8,260.7,110.4,259.8,110.9z"/>
	<path fill-rule="evenodd" clip-rule="evenodd" fill="#DADFE3" d="M90.8,132.9l60.3,34.8l0,0l0.2-0.4l0.2-0.4l0.2-0.4l0,0
		c0.1-0.1,0.2-0.2,0.3-0.4c0.1-0.1,0.2-0.2,0.3-0.3c0.1-0.1,0.2-0.2,0.3-0.3c0.1-0.1,0.2-0.2,0.3-0.3c0.1-0.1,0.2-0.2,0.3-0.3
		c0.1-0.1,0.2-0.2,0.3-0.3c0.1-0.1,0.2-0.2,0.3-0.3c0.1-0.1,0.2-0.2,0.3-0.3c0.1-0.1,0.2-0.2,0.3-0.3c0.1-0.1,0.2-0.2,0.3-0.3
		c0.1-0.1,0.2-0.2,0.3-0.3c0.1-0.1,0.2-0.2,0.3-0.2c0.1-0.1,0.2-0.2,0.3-0.2c0.1-0.1,0.2-0.2,0.3-0.2c0.1-0.1,0.2-0.1,0.3-0.2
		c0.1-0.1,0.2-0.1,0.3-0.2l116.9-67.5c0.2-0.1,0.3-0.2,0.5-0.2l-0.2-0.1l-59.8-34.5l-0.2-0.1l-0.2,0l-0.2,0.1l-0.3,0.1L96.2,127.2
		l-0.3,0.2l-0.3,0.2l-0.3,0.2l-0.3,0.2l-0.3,0.2l-0.3,0.3l-0.3,0.3l-0.3,0.3l-0.3,0.3l-0.3,0.3l-0.3,0.3l-0.3,0.3l-0.3,0.3l-0.3,0.3
		l-0.3,0.4l-0.2,0.4l0,0l-0.2,0.4l-0.2,0.4L90.8,132.9L90.8,132.9z"/>
</g>
</svg>
