<?xml version="1.0" encoding="utf-8"?>
<!-- Generator: Adobe Illustrator 21.1.0, SVG Export Plug-In . SVG Version: 6.00 Build 0)  -->
<!DOCTYPE svg PUBLIC "-//W3C//DTD SVG 1.1//EN" "http://www.w3.org/Graphics/SVG/1.1/DTD/svg11.dtd">
<svg version="1.1" id="Layer_1" xmlns="http://www.w3.org/2000/svg" xmlns:xlink="http://www.w3.org/1999/xlink" x="0px" y="0px"
	 width="360px" height="360px" viewBox="0 0 360 360" enable-background="new 0 0 360 360" xml:space="preserve">
<g>
	<path fill-rule="evenodd" clip-rule="evenodd" fill="#FFFFFF" d="M360,0c0,120,0,240,0,360c-120,0-240,0-360,0C0,240,0,120,0,0
		C120,0,240,0,360,0z"/>
	<g>
		<path opacity="3.300000e-03" fill-rule="evenodd" clip-rule="evenodd" fill="#040507" d="M259.6,249c44,25.4,44,66.6,0,92
			c-44,25.4-115.3,25.4-159.2,0c-44-25.4-44-66.6,0-92C144.4,223.6,215.6,223.6,259.6,249z"/>
		<path opacity="6.700000e-03" fill-rule="evenodd" clip-rule="evenodd" fill="#080A0D" d="M254.3,252.1c41,23.7,41,62.1,0,85.8
			c-41,23.7-107.5,23.7-148.6,0c-41-23.7-41-62.1,0-85.8C146.7,228.4,213.3,228.4,254.3,252.1z"/>
		<path opacity="1.000000e-02" fill-rule="evenodd" clip-rule="evenodd" fill="#0B0E14" d="M248.9,255.1c38.1,22,38.1,57.7,0,79.6
			c-38.1,22-99.8,22-137.9,0c-38.1-22-38.1-57.6,0-79.6C149.1,233.2,210.9,233.2,248.9,255.1z"/>
		<path opacity="1.330000e-02" fill-rule="evenodd" clip-rule="evenodd" fill="#0F131B" d="M243.6,258.2c35.1,20.3,35.1,53.2,0,73.5
			c-35.1,20.3-92.1,20.3-127.2,0c-35.1-20.3-35.1-53.2,0-73.5C151.5,237.9,208.5,237.9,243.6,258.2z"/>
		<path opacity="1.670000e-02" fill-rule="evenodd" clip-rule="evenodd" fill="#131822" d="M238.3,261.3c32.2,18.6,32.2,48.7,0,67.3
			c-32.2,18.6-84.4,18.6-116.6,0c-32.2-18.6-32.2-48.7,0-67.3C153.9,242.7,206.1,242.7,238.3,261.3z"/>
		<path opacity="2.000000e-02" fill-rule="evenodd" clip-rule="evenodd" fill="#171D29" d="M232.9,264.4c29.2,16.9,29.2,44.3,0,61.2
			c-29.2,16.9-76.6,16.9-105.9,0c-29.2-16.9-29.2-44.3,0-61.2C156.3,247.5,203.7,247.5,232.9,264.4z"/>
		<path opacity="2.330000e-02" fill-rule="evenodd" clip-rule="evenodd" fill="#1B2230" d="M227.6,267.5c26.3,15.2,26.3,39.8,0,55
			c-26.3,15.2-68.9,15.2-95.2,0c-26.3-15.2-26.3-39.8,0-55C158.7,252.3,201.3,252.3,227.6,267.5z"/>
		<path opacity="2.670000e-02" fill-rule="evenodd" clip-rule="evenodd" fill="#1F2737" d="M222.3,270.6c23.3,13.5,23.3,35.3,0,48.8
			c-23.3,13.5-61.2,13.5-84.5,0c-23.3-13.5-23.3-35.3,0-48.8C161.1,257.1,198.9,257.1,222.3,270.6z"/>
		<path opacity="3.000000e-02" fill-rule="evenodd" clip-rule="evenodd" fill="#232C3F" d="M216.9,273.6c20.4,11.8,20.4,30.9,0,42.7
			c-20.4,11.8-53.5,11.8-73.9,0c-20.4-11.8-20.4-30.9,0-42.7C163.5,261.8,196.5,261.8,216.9,273.6z"/>
		<path opacity="3.330000e-02" fill-rule="evenodd" clip-rule="evenodd" fill="#273246" d="M211.6,276.7c17.5,10.1,17.5,26.4,0,36.5
			c-17.5,10.1-45.8,10.1-63.2,0c-17.5-10.1-17.5-26.4,0-36.5C165.8,266.6,194.1,266.6,211.6,276.7z"/>
		<path opacity="3.670000e-02" fill-rule="evenodd" clip-rule="evenodd" fill="#2B374D" d="M206.3,279.8c14.5,8.4,14.5,22,0,30.3
			c-14.5,8.4-38,8.4-52.5,0c-14.5-8.4-14.5-22,0-30.3C168.2,271.4,191.8,271.4,206.3,279.8z"/>
		<path opacity="4.000000e-02" fill-rule="evenodd" clip-rule="evenodd" fill="#2F3C54" d="M200.9,282.9c11.6,6.7,11.6,17.5,0,24.2
			c-11.6,6.7-30.3,6.7-41.9,0c-11.6-6.7-11.6-17.5,0-24.2C170.6,276.2,189.4,276.2,200.9,282.9z"/>
		<path opacity="4.330000e-02" fill-rule="evenodd" clip-rule="evenodd" fill="#34415C" d="M195.6,286c8.6,5,8.6,13,0,18
			c-8.6,5-22.6,5-31.2,0c-8.6-5-8.6-13,0-18S187,281,195.6,286z"/>
		<path opacity="4.670000e-02" fill-rule="evenodd" clip-rule="evenodd" fill="#384763" d="M190.3,289c5.7,3.3,5.7,8.6,0,11.9
			c-5.7,3.3-14.9,3.3-20.5,0c-5.7-3.3-5.7-8.6,0-11.9C175.4,285.8,184.6,285.8,190.3,289z"/>
	</g>
	<g>
		<path fill-rule="evenodd" clip-rule="evenodd" fill="#677475" d="M89,187.7c0,0.2-0.1,0.5-0.1,0.7l-3.1,1.8L86,190l0.1-0.2
			l0.1-0.2l0-0.3l0-1.1l0.1-1l0.1-1l0.2-0.9l0.2-0.9l0.3-0.9l0.3-0.8l0.3-0.8l0.4-0.7l0.4-0.7l0.4-0.6l0.5-0.6l0.5-0.5l0.6-0.5
			l0.6-0.4l0.6-0.4l64-36.9l-0.6,0.4l-0.6,0.4l-0.6,0.5l-0.5,0.5l-0.5,0.6l-0.4,0.6l-0.4,0.7l-0.4,0.7l-0.3,0.8l-0.3,0.8l-0.3,0.9
			l-0.2,0.9l-0.2,0.9l-0.1,1l-0.1,1l0,1.1l0,0.3l-0.1,0.2l-0.1,0.2l-0.2,0.1l-35.1,20.2l-0.2-0.1l-0.5-0.2l-0.3-0.1l-0.8-0.2
			l-0.8-0.2l-0.7-0.1l-0.7-0.1l-0.7,0l-0.7,0l-0.7,0.1l-0.6,0.1l-0.6,0.2l-0.6,0.2l-0.6,0.2l-0.6,0.3l-12.2,7.1l0,0
			C91.2,181.8,89.6,184.2,89,187.7L89,187.7z M101.6,180.1L101.6,180.1L101.6,180.1L101.6,180.1L101.6,180.1z M100.8,179.9
			L100.8,179.9L100.8,179.9L100.8,179.9L100.8,179.9z M100,179.7L100,179.7L100,179.7L100,179.7L100,179.7z M99.3,179.6L99.3,179.6
			L99.3,179.6L99.3,179.6L99.3,179.6z M98.6,179.5L98.6,179.5L98.6,179.5L98.6,179.5L98.6,179.5z M97.8,179.4L97.8,179.4L97.8,179.4
			L97.8,179.4L97.8,179.4z M96.5,179.5L96.5,179.5L96.5,179.5L96.5,179.5L96.5,179.5z M95.8,179.6L95.8,179.6L95.8,179.6L95.8,179.6
			L95.8,179.6z M95.2,179.8L95.2,179.8L95.2,179.8L95.2,179.8L95.2,179.8z M94.6,180L94.6,180L94.6,180L94.6,180z"/>
		<polygon fill-rule="evenodd" clip-rule="evenodd" fill="#CCCCCC" points="98.6,189.3 110.8,182.3 110.8,182.3 98.6,189.3 		"/>
		<polygon fill-rule="evenodd" clip-rule="evenodd" fill="#677475" points="110.7,196.5 110.8,196.6 111.1,197.2 111.4,197.7 
			111.8,198.2 112.1,198.6 112.5,199.1 112.8,199.6 113.2,200 113.6,200.4 114,200.9 114.4,201.3 114.8,201.6 115.3,202 
			115.7,202.3 116.1,202.6 116.6,202.9 117,203.2 117.5,203.5 117.9,203.7 118.4,203.9 118.8,204 119.2,204.2 119.6,204.3 
			120.1,204.4 120.5,204.4 120.8,204.4 121.2,204.4 121.6,204.4 121.9,204.3 122.3,204.2 122.6,204.1 122.9,204 123.3,203.8 
			111,210.9 110.7,211.1 110.4,211.2 110.1,211.3 109.7,211.4 109.3,211.5 109,211.5 108.6,211.5 108.2,211.5 107.8,211.4 
			107.4,211.3 107,211.2 106.6,211.1 106.1,211 105.7,210.8 105.2,210.5 104.8,210.3 104.3,210 103.9,209.7 103.4,209.4 103,209.1 
			102.6,208.7 102.2,208.3 101.8,207.9 101.4,207.5 101,207.1 100.6,206.6 100.2,206.2 99.9,205.7 99.5,205.2 99.2,204.7 
			98.9,204.2 98.6,203.7 98.5,203.6 98.2,203.1 97.9,202.5 97.7,202 97.4,201.5 97.2,200.9 97,200.4 96.8,199.9 96.6,199.3 
			96.5,198.8 96.4,198.2 96.2,197.7 96.1,197.1 96.1,196.6 96,196.1 96,195.6 96,195 96,194.5 96,194 96.1,193.6 96.2,193.1 
			96.3,192.7 96.4,192.2 96.5,191.9 96.7,191.5 96.8,191.1 97,190.8 97.3,190.5 97.5,190.2 97.7,190 98,189.7 98.3,189.5 
			98.6,189.3 110.8,182.3 110.5,182.5 110.2,182.7 110,182.9 109.7,183.2 109.5,183.4 109.3,183.7 109.1,184.1 108.9,184.4 
			108.8,184.8 108.6,185.2 108.5,185.6 108.4,186 108.3,186.5 108.3,187 108.2,187.5 108.2,188 108.2,188.5 108.3,189 108.3,189.5 
			108.4,190.1 108.5,190.6 108.6,191.2 108.7,191.7 108.9,192.2 109.1,192.8 109.2,193.3 109.5,193.9 109.7,194.4 109.9,194.9 
			110.2,195.5 110.4,196 		"/>
		<polygon fill-rule="evenodd" clip-rule="evenodd" fill="#30383B" points="128.3,186.5 128.3,186.5 127.8,185.6 127.2,184.7 
			126.6,183.8 126,182.9 125.3,182 124.7,181.2 124,180.4 123.3,179.6 122.5,178.8 121.8,178.1 121,177.4 120.2,176.8 119.5,176.2 
			118.7,175.6 117.9,175.1 117,174.6 116.2,174.1 115.4,173.7 114.6,173.4 113.8,173.1 113,172.8 112.3,172.6 111.5,172.5 
			110.8,172.4 110.1,172.4 109.4,172.4 108.7,172.4 108.1,172.5 107.4,172.7 106.8,172.9 106.3,173.1 105.7,173.4 93.5,180.5 
			94,180.2 94.6,180 95.2,179.8 95.8,179.6 96.5,179.5 97.1,179.4 97.8,179.4 98.5,179.5 99.3,179.6 100,179.7 100.8,179.9 
			101.6,180.1 102.3,180.4 103.1,180.8 104,181.2 104.8,181.6 105.6,182.1 106.4,182.7 107.2,183.2 108,183.9 108.8,184.5 
			109.5,185.2 110.3,185.9 111,186.7 111.7,187.4 112.4,188.3 113.1,189.1 113.7,189.9 114.4,190.8 115,191.7 115.5,192.6 
			116.1,193.6 116.1,193.6 116.4,194.1 116.6,194.5 116.9,195 117.1,195.5 117.4,196 117.6,196.5 117.8,196.9 118.1,197.4 
			118.3,197.9 118.5,198.4 118.7,198.9 118.9,199.4 119,199.9 119.2,200.4 119.4,200.9 119.5,201.4 119.7,201.9 119.8,202.4 
			119.9,202.9 120.1,203.4 120.2,203.9 120.3,204.4 120.4,204.9 120.5,205.4 120.5,205.9 120.6,206.4 120.7,206.9 120.7,207.4 
			120.7,207.9 120.8,208.4 120.8,208.9 120.8,209.4 120.8,210.3 120.7,211.2 120.6,212.1 120.5,212.9 120.3,213.7 120.1,214.4 
			119.8,215.1 119.5,215.8 119.2,216.5 118.9,217 118.5,217.6 118.1,218.1 117.6,218.6 117.1,219 116.6,219.4 116.1,219.7 
			128.3,212.6 128.9,212.3 129.4,211.9 129.9,211.5 130.3,211 130.7,210.5 131.1,210 131.5,209.4 131.8,208.8 132.1,208.1 
			132.3,207.4 132.5,206.6 132.7,205.8 132.9,205 133,204.1 133,203.2 133,202.3 133,201.8 133,201.3 133,200.8 133,200.3 
			132.9,199.9 132.9,199.4 132.8,198.9 132.7,198.4 132.6,197.9 132.5,197.4 132.4,196.9 132.3,196.4 132.2,195.9 132.1,195.4 
			131.9,194.9 131.8,194.4 131.6,193.9 131.5,193.4 131.3,192.9 131.1,192.4 130.9,191.9 130.7,191.4 130.5,190.9 130.3,190.4 
			130.1,189.9 129.9,189.4 129.6,188.9 129.4,188.4 129.1,187.9 128.9,187.5 128.6,187 		"/>
		<path fill-rule="evenodd" clip-rule="evenodd" fill="#4E5A5E" d="M116.1,193.6c-2.9-5-6.9-9.4-11.3-12c-4.4-2.5-8.4-2.8-11.3-1.1
			l0,0c-2.9,1.7-4.7,5.3-4.7,10.4c0,5.1,1.8,10.8,4.7,15.8c2.9,5,6.9,9.4,11.3,11.9c4.4,2.6,8.4,2.8,11.3,1.1
			c2.9-1.7,4.7-5.3,4.7-10.4C120.8,204.3,119,198.6,116.1,193.6L116.1,193.6L116.1,193.6z M111,196.5c1.6,2.8,2.6,5.9,2.6,8.7
			c0,2.8-1,4.8-2.6,5.7c-1.6,0.9-3.8,0.8-6.2-0.6c-2.4-1.4-4.6-3.8-6.2-6.6l-0.1-0.1c-1.5-2.7-2.5-5.8-2.5-8.5c0-2.8,1-4.8,2.6-5.7
			l0,0c1.6-0.9,3.8-0.8,6.2,0.6C107.2,191.4,109.4,193.8,111,196.5z"/>
		<path fill-rule="evenodd" clip-rule="evenodd" fill="#E6EAEB" d="M111.1,196.1c-1.5-2.6-3.6-4.9-5.9-6.2c-2.3-1.3-4.4-1.5-5.9-0.6
			v0c-1.5,0.9-2.5,2.8-2.5,5.4c0,2.6,0.9,5.5,2.4,8.1l0.1,0.1c1.5,2.6,3.6,4.9,5.9,6.2c2.3,1.3,4.4,1.5,5.9,0.6
			c1.5-0.9,2.4-2.7,2.4-5.4C113.6,201.7,112.7,198.8,111.1,196.1z"/>
		<path fill-rule="evenodd" clip-rule="evenodd" fill="#677475" d="M167.7,236.5l2.7-1.6c0,0.2-0.1,0.5-0.1,0.7l-3,1.8l0.2-0.1
			l0.1-0.2l0.1-0.2L167.7,236.5L167.7,236.5z M195.7,220.3l36-20.8l0,0.3l-0.1,0.2l-0.1,0.2l-0.2,0.1l-34.9,20.1l-0.3-0.2
			L195.7,220.3z"/>
		<polygon fill-rule="evenodd" clip-rule="evenodd" fill="#CCCCCC" points="180,236.4 192.3,229.3 192.3,229.3 180,236.4 		"/>
		<polygon fill-rule="evenodd" clip-rule="evenodd" fill="#677475" points="192.2,243.5 192.3,243.7 192.6,244.2 192.9,244.7 
			193.2,245.2 193.6,245.7 193.9,246.2 194.3,246.6 194.7,247.1 195.1,247.5 195.5,247.9 195.9,248.3 196.3,248.7 196.7,249 
			197.2,249.4 197.6,249.7 198,250 198.5,250.3 198.9,250.5 199.4,250.7 199.8,250.9 200.3,251.1 200.7,251.2 201.1,251.3 
			201.5,251.4 201.9,251.4 202.3,251.5 202.7,251.5 203.1,251.4 203.4,251.4 203.8,251.3 204.1,251.2 204.4,251 204.7,250.9 
			192.5,257.9 192.2,258.1 191.9,258.2 191.5,258.3 191.2,258.4 190.8,258.5 190.4,258.5 190.1,258.5 189.7,258.5 189.3,258.5 
			188.9,258.4 188.5,258.3 188,258.1 187.6,258 187.2,257.8 186.7,257.6 186.3,257.3 185.8,257.1 185.4,256.8 184.9,256.4 
			184.5,256.1 184.1,255.7 183.6,255.4 183.2,255 182.8,254.6 182.4,254.1 182.1,253.7 181.7,253.2 181.3,252.7 181,252.3 
			180.6,251.8 180.3,251.3 180,250.8 179.9,250.6 179.7,250.1 179.4,249.6 179.1,249 178.9,248.5 178.7,248 178.5,247.4 
			178.3,246.9 178.1,246.4 178,245.8 177.8,245.3 177.7,244.7 177.6,244.2 177.5,243.6 177.5,243.1 177.5,242.6 177.4,242.1 
			177.5,241.6 177.5,241.1 177.5,240.6 177.6,240.1 177.7,239.7 177.8,239.3 178,238.9 178.1,238.5 178.3,238.2 178.5,237.8 
			178.7,237.5 178.9,237.3 179.2,237 179.5,236.8 179.7,236.6 180,236.4 192.3,229.3 192,229.5 191.7,229.7 191.4,229.9 
			191.2,230.2 191,230.5 190.8,230.8 190.6,231.1 190.4,231.5 190.2,231.8 190.1,232.2 190,232.6 189.9,233.1 189.8,233.5 
			189.7,234 189.7,234.5 189.7,235 189.7,235.5 189.7,236.1 189.8,236.6 189.9,237.1 190,237.7 190.1,238.2 190.2,238.7 
			190.4,239.3 190.5,239.8 190.7,240.4 190.9,240.9 191.1,241.4 191.4,242 191.6,242.5 191.9,243 		"/>
		<polygon fill-rule="evenodd" clip-rule="evenodd" fill="#30383B" points="209.8,233.5 209.8,233.5 209.3,232.6 208.7,231.7 
			208.1,230.8 207.4,229.9 206.8,229.1 206.1,228.2 205.4,227.4 204.7,226.6 204,225.9 203.3,225.2 202.5,224.5 201.7,223.8 
			200.9,223.2 200.1,222.6 199.3,222.1 198.5,221.6 197.7,221.1 196.9,220.7 196.1,220.4 195.3,220.1 194.5,219.9 193.7,219.7 
			193,219.5 192.3,219.4 191.6,219.4 190.9,219.4 190.2,219.5 189.5,219.6 188.9,219.7 188.3,219.9 187.7,220.2 187.2,220.5 
			174.9,227.5 175.5,227.2 176.1,227 176.7,226.8 177.3,226.6 178,226.5 178.6,226.5 179.3,226.5 180,226.5 180.7,226.6 
			181.5,226.7 182.3,226.9 183,227.2 183.8,227.5 184.6,227.8 185.4,228.2 186.3,228.7 187.1,229.2 187.9,229.7 188.7,230.3 
			189.5,230.9 190.3,231.5 191,232.2 191.8,233 192.5,233.7 193.2,234.5 193.9,235.3 194.5,236.1 195.2,237 195.8,237.9 
			196.4,238.8 197,239.7 197.6,240.6 197.6,240.6 197.8,241.1 198.1,241.6 198.4,242 198.6,242.5 198.8,243 199.1,243.5 199.3,244 
			199.5,244.5 199.7,245 199.9,245.5 200.1,246 200.3,246.5 200.5,247 200.7,247.5 200.8,248 201,248.5 201.1,249 201.3,249.5 
			201.4,250 201.5,250.5 201.7,251 201.8,251.5 201.8,252 201.9,252.5 202,253 202.1,253.5 202.1,254 202.2,254.5 202.2,254.9 
			202.2,255.4 202.3,255.9 202.3,256.4 202.2,257.3 202.2,258.2 202.1,259.1 201.9,259.9 201.8,260.7 201.5,261.5 201.3,262.2 
			201,262.9 200.7,263.5 200.3,264.1 199.9,264.6 199.5,265.1 199.1,265.6 198.6,266 198.1,266.4 197.6,266.8 209.8,259.7 
			210.3,259.3 210.8,259 211.3,258.5 211.8,258.1 212.2,257.6 212.6,257 212.9,256.4 213.2,255.8 213.5,255.1 213.8,254.4 
			214,253.6 214.2,252.9 214.3,252 214.4,251.2 214.5,250.3 214.5,249.3 214.5,248.8 214.5,248.4 214.5,247.9 214.4,247.4 
			214.4,246.9 214.3,246.4 214.3,245.9 214.2,245.4 214.1,244.9 214,244.4 213.9,243.9 213.8,243.4 213.7,242.9 213.5,242.4 
			213.4,241.9 213.2,241.4 213.1,240.9 212.9,240.4 212.8,239.9 212.6,239.4 212.4,238.9 212.2,238.4 212,237.9 211.8,237.4 
			211.6,236.9 211.3,236.4 211.1,235.9 210.8,235.5 210.6,235 210.3,234.5 210.1,234 		"/>
		<path fill-rule="evenodd" clip-rule="evenodd" fill="#4E5A5E" d="M197.6,240.6c-2.9-5-6.9-9.4-11.3-11.9
			c-4.4-2.6-8.4-2.8-11.3-1.1l0,0c-2.9,1.7-4.7,5.3-4.7,10.4c0,5.1,1.8,10.8,4.7,15.8c2.9,5,6.9,9.4,11.3,12
			c4.4,2.6,8.4,2.8,11.3,1.1c2.9-1.7,4.7-5.3,4.7-10.4C202.3,251.3,200.5,245.6,197.6,240.6L197.6,240.6L197.6,240.6z M192.5,243.6
			c1.6,2.8,2.6,5.9,2.6,8.7c0,2.8-1,4.8-2.6,5.7c-1.6,0.9-3.8,0.8-6.2-0.6c-2.4-1.4-4.6-3.8-6.2-6.6l-0.1-0.1
			c-1.5-2.7-2.5-5.8-2.5-8.5c0-2.8,1-4.8,2.6-5.7l0,0c1.6-0.9,3.8-0.8,6.2,0.6C188.7,238.4,190.9,240.8,192.5,243.6z"/>
		<path fill-rule="evenodd" clip-rule="evenodd" fill="#E6EAEB" d="M192.6,243.2c-1.5-2.6-3.6-4.9-5.9-6.2c-2.3-1.3-4.4-1.5-5.9-0.6
			l0,0c-1.5,0.9-2.5,2.8-2.5,5.4c0,2.6,0.9,5.5,2.4,8.1l0.1,0.1c1.5,2.6,3.6,4.9,5.9,6.3c2.3,1.3,4.4,1.5,5.9,0.6s2.5-2.8,2.5-5.4
			C195.1,248.8,194.1,245.8,192.6,243.2z"/>
		<path fill-rule="evenodd" clip-rule="evenodd" fill="#E6EAEB" d="M84.9,190l4.1-2.4l0,0L84.9,190L84.9,190L84.9,190z M114.1,173.2
			l34.8-20.1v0L114.1,173.2L114.1,173.2z"/>
		<path fill-rule="evenodd" clip-rule="evenodd" fill="#677475" d="M173.2,224.5l64-36.9l-0.6,0.4l-0.6,0.4l-0.6,0.5l-0.5,0.5
			l-0.5,0.6l-0.4,0.6l-0.4,0.7l-0.4,0.7l-0.3,0.8l-0.3,0.8l-0.2,0.9l-0.2,0.9l-0.2,1l-0.1,1l-0.1,1l0,1.1l-36,20.8l-0.5-0.2
			l-0.8-0.2l-0.8-0.2l-0.7-0.1l-0.7-0.1l-0.7,0l-0.7,0l-0.7,0.1l-0.6,0.1l-0.6,0.2l-0.6,0.2l-0.6,0.2l-0.6,0.3l-12.2,7.1l0,0
			c-2.3,1.3-3.9,3.8-4.5,7.3l-2.7,1.6l0-1.1l0.1-1l0.1-1l0.2-1l0.2-0.9l0.2-0.9l0.3-0.8l0.3-0.8l0.4-0.7l0.4-0.7l0.4-0.6l0.5-0.6
			l0.5-0.5l0.6-0.5l0.6-0.4L173.2,224.5z"/>
		<polygon fill-rule="evenodd" clip-rule="evenodd" fill="#E6EAEB" points="212,262 275.9,225.1 275.9,225.4 275.8,225.6 
			275.7,225.8 275.5,225.9 211.6,262.9 211.7,262.7 211.8,262.5 211.9,262.3 		"/>
		<path fill-rule="evenodd" clip-rule="evenodd" fill="#E6EAEB" d="M166.4,237.2l4.1-2.4l0,0L166.4,237.2L166.4,237.2L166.4,237.2z
			 M195.7,220.3l34.6-20v0L195.7,220.3L195.7,220.3z"/>
		<path fill-rule="evenodd" clip-rule="evenodd" fill="#E6EAEB" d="M187.1,170.3l64-36.9l0.3,0.4l0.2,0.4l0.2,0.4l0.2,0.4l0.2,0.4
			l0.2,0.4l0.2,0.4l0.2,0.4l0.2,0.4l0.2,0.4l0.2,0.4l0.1,0.4l0.1,0.4l0.1,0.4l0.1,0.4l0.1,0.4l7.1,33.2c0.4,1.7,1.3,3,2.8,3.9
			l7.2,4.2c4.1,2.4,4.8,4.1,4.8,5.3v38.4L212,262v-38.4c0-1.3-0.1-2.5-3.2-4.4l-8.8-5.1c-1.5-0.9-2.5-2.2-2.8-3.9l-7.1-33.2
			l-0.1-0.4l-0.1-0.4l-0.1-0.4l-0.1-0.4l-0.1-0.4l-0.2-0.4l-0.2-0.4l-0.2-0.4l-0.2-0.4l-0.2-0.4l-0.2-0.4l-0.2-0.4l-0.2-0.4
			l-0.2-0.4l-0.2-0.4L187.1,170.3z"/>
		<polygon fill-rule="evenodd" clip-rule="evenodd" fill="#C5CCD1" points="265.4,218.3 264.1,217.6 263.7,217.3 263.4,217 
			263.2,216.7 262.9,216.3 262.8,215.8 262.6,215.3 262.5,214.7 262.5,214.1 262.5,213.5 262.6,212.8 262.8,212.1 262.9,211.5 
			263.2,210.8 263.4,210.1 263.7,209.5 264.1,208.8 264.5,208.2 264.9,207.6 265.3,207 265.8,206.5 266.3,206 266.8,205.6 
			267.3,205.2 267.9,204.8 268.4,204.5 269,204.3 269.5,204.2 270,204.1 270.4,204.1 270.9,204.2 271.3,204.3 271.7,204.5 
			272.9,205.2 272.6,205 272.1,204.9 271.7,204.8 271.2,204.8 270.7,204.9 270.2,205.1 269.7,205.3 269.1,205.6 268.6,205.9 
			268.1,206.3 267.5,206.8 267.1,207.3 266.6,207.8 266.1,208.3 265.7,208.9 265.4,209.6 265,210.2 264.7,210.9 264.4,211.5 
			264.2,212.2 264,212.9 263.9,213.5 263.8,214.2 263.8,214.8 263.8,215.5 263.9,216 264,216.5 264.2,217 264.4,217.4 264.7,217.8 
			265,218.1 		"/>
		<path fill-rule="evenodd" clip-rule="evenodd" fill="#FFFFFF" d="M269.1,217.9c-3,1.7-5.4,0.3-5.4-3.1c0-3.4,2.4-7.6,5.4-9.3
			c3-1.7,5.4-0.3,5.4,3.1C274.5,212.1,272.1,216.2,269.1,217.9z"/>
		<polygon fill-rule="evenodd" clip-rule="evenodd" fill="#E6EAEB" points="282.1,228 282.1,217.7 212.2,258 212.2,268.3 		"/>
		<path fill-rule="evenodd" clip-rule="evenodd" fill="#9C9C9C" d="M252,208.2l0,14.8c0,0.2-0.1,0.4-0.3,0.5l-3.5,2l0-15.2l3.5-2
			C251.8,208.2,251.9,208.2,252,208.2z"/>
		<polygon fill-rule="evenodd" clip-rule="evenodd" fill="#9C9C9C" points="242.1,229 242.1,213.7 245.9,211.6 245.9,226.8 		"/>
		<polygon fill-rule="evenodd" clip-rule="evenodd" fill="#9C9C9C" points="239.8,215.1 239.8,230.4 236,232.5 236,217.3 		"/>
		<polygon fill-rule="evenodd" clip-rule="evenodd" fill="#9C9C9C" points="254.3,221.9 254.3,206.7 258.1,204.5 258.1,219.8 		"/>
		<polygon fill-rule="evenodd" clip-rule="evenodd" fill="#9C9C9C" points="230.2,235.9 230.2,220.6 233.9,218.5 233.9,233.7 		"/>
		<polygon fill-rule="evenodd" clip-rule="evenodd" fill="#677475" points="233.9,218.5 230.2,220.6 230.2,231.6 233.9,233.7 		"/>
		<polygon fill-rule="evenodd" clip-rule="evenodd" fill="#677475" points="239.8,215.1 236,217.3 236,228.2 239.8,230.4 		"/>
		<polygon fill-rule="evenodd" clip-rule="evenodd" fill="#677475" points="245.9,211.6 242.1,213.7 242.1,224.7 245.9,226.8 		"/>
		<polygon fill-rule="evenodd" clip-rule="evenodd" fill="#677475" points="252,208.1 248.2,210.2 248.2,221.1 252,223.3 		"/>
		<polygon fill-rule="evenodd" clip-rule="evenodd" fill="#677475" points="258.1,204.5 254.3,206.7 254.3,217.6 258.1,219.8 		"/>
		<path fill-rule="evenodd" clip-rule="evenodd" fill="#E6EAEB" d="M246.1,128.5l0.3,0.2l0.3,0.2l0.3,0.2l0.3,0.2l0.3,0.3l0.3,0.3
			l0.3,0.3l0.3,0.3l0.3,0.3l0.3,0.3l0.3,0.3l0.3,0.3l0.3,0.4l0.3,0.4l0.3,0.4l0.3,0.4l-64,36.9l0,0l0,0c-0.1-0.1-0.2-0.2-0.3-0.4
			c-0.1-0.1-0.2-0.2-0.3-0.4c-0.1-0.1-0.2-0.2-0.3-0.4c-0.1-0.1-0.2-0.2-0.3-0.4c-0.1-0.1-0.2-0.2-0.3-0.3c-0.1-0.1-0.2-0.2-0.3-0.3
			c-0.1-0.1-0.2-0.2-0.3-0.3c-0.1-0.1-0.2-0.2-0.3-0.3c-0.1-0.1-0.2-0.2-0.3-0.3c-0.1-0.1-0.2-0.2-0.3-0.3c-0.1-0.1-0.2-0.2-0.3-0.3
			c-0.1-0.1-0.2-0.2-0.3-0.3c-0.1-0.1-0.2-0.2-0.3-0.3c-0.1-0.1-0.2-0.2-0.3-0.2c-0.1-0.1-0.2-0.2-0.3-0.2c-0.1-0.1-0.2-0.1-0.4-0.2
			L77.6,105.1c-0.2-0.1-0.4-0.2-0.5-0.2l0.3-0.1l63.4-36.6l0.2-0.1l0.2,0l0.3,0.1l0.3,0.1L246.1,128.5z"/>
		<polygon fill-rule="evenodd" clip-rule="evenodd" fill="#E6EAEB" points="74.5,164 76.6,165.2 76.6,172.3 74.5,171.1 		"/>
		<polygon fill-rule="evenodd" clip-rule="evenodd" fill="#AB4032" points="77.4,164.8 76.6,165.2 76.6,172.3 77.4,171.9 		"/>
		<polygon fill-rule="evenodd" clip-rule="evenodd" fill="#C5CCD1" points="77.4,164.8 76.2,164.1 76.2,163 74.5,164 76.6,165.2 		
			"/>
		<path fill-rule="evenodd" clip-rule="evenodd" fill="#9C9C9C" d="M76.2,105.9c0-0.9,0.6-1.2,1.4-0.8l104.5,60.4
			c1.9,1.1,3.6,2.8,5,4.8v0v0l0.3,0.4l0,0l0.2,0.4l0,0l0.2,0.4l0,0l0.2,0.4l0.2,0.4l0.2,0.3l0.1,0.1v0l0,0.1l0.2,0.3l0.2,0.4
			l0.1,0.2l0,0.1l0,0.1l0.2,0.4l0.1,0.4l0,0h0l0,0.1l0.1,0.3l0.1,0.4l0.1,0.4l0,0.1l0,0l0,0.1l0.1,0.3l0.1,0.3l0,0.1l0,0l7.1,33.2
			c0.4,1.7,1.3,3,2.8,3.9l8.8,5.1l0.1,0.1c2.7,1.6,3,2.7,3,3.8v0l0,0v0v0v0v0v0v0v0v0l0,0v0v0v0v0v0v0v0v0v0v0v0v0l0,0v0v0v0v0v0
			l0,0V262c0,0.9-0.6,1.2-1.4,0.8l-4.4-2.6c-0.8-0.4-1.4-1.5-1.4-2.4c0-5.9-2.1-12.4-5.4-18.3l-0.1-0.1c-3.3-5.8-8-10.8-13-13.7
			c-5.1-3-9.7-3.2-13.1-1.3c-3.4,1.9-5.4,6.1-5.4,12c0,0.9-0.6,1.2-1.4,0.8v0c-9.8-5.7-33.3-19.4-41.7-24.2
			c-0.8-0.4-1.4-1.5-1.4-2.4l0-0.1c-0.1-5.9-2.1-12.3-5.5-18.1c-3.3-5.8-8-10.8-13-13.7c-5.1-2.9-9.7-3.2-13-1.3
			c-3.4,1.9-5.4,6-5.5,11.9c0,0.9-0.6,1.2-1.4,0.8v0l-0.4-0.2c-2.3-1.3-4.3-3.6-5.8-6.2c-1.5-2.6-2.4-5.5-2.4-8.1
			C76.2,152.3,76.2,129.1,76.2,105.9z"/>
		<polygon fill-rule="evenodd" clip-rule="evenodd" fill="#C5CCD1" points="217.8,245.7 216.5,244.9 216.2,244.7 215.9,244.4 
			215.6,244.1 215.4,243.6 215.2,243.2 215.1,242.7 215,242.1 214.9,241.5 215,240.8 215.1,240.2 215.2,239.5 215.4,238.8 
			215.6,238.2 215.9,237.5 216.2,236.8 216.5,236.2 216.9,235.6 217.3,235 217.7,234.4 218.2,233.9 218.7,233.4 219.2,232.9 
			219.8,232.5 220.3,232.2 220.8,231.9 221.4,231.7 221.9,231.6 222.4,231.5 222.9,231.5 223.3,231.5 223.7,231.6 224.1,231.8 
			225.4,232.5 225,232.4 224.6,232.3 224.1,232.2 223.7,232.2 223.2,232.3 222.7,232.4 222.1,232.6 221.6,232.9 221,233.3 
			220.5,233.7 220,234.1 219.5,234.6 219,235.1 218.6,235.7 218.2,236.3 217.8,236.9 217.4,237.6 217.1,238.2 216.9,238.9 
			216.6,239.6 216.5,240.2 216.3,240.9 216.2,241.6 216.2,242.2 216.2,242.8 216.3,243.4 216.5,243.9 216.6,244.4 216.9,244.8 
			217.1,245.1 217.4,245.4 		"/>
		<path fill-rule="evenodd" clip-rule="evenodd" fill="#FFFFFF" d="M221.6,245.3c-3,1.7-5.4,0.3-5.4-3.1c0-3.4,2.4-7.6,5.4-9.3
			c3-1.7,5.4-0.3,5.4,3.1C226.9,239.4,224.5,243.6,221.6,245.3z"/>
		<polygon fill-rule="evenodd" clip-rule="evenodd" fill="#9C9C9C" points="212.2,258 202.8,252.5 202.8,262.8 212.2,268.3 		"/>
		<polygon fill-rule="evenodd" clip-rule="evenodd" fill="#C5CCD1" points="282.1,217.7 275.9,214.1 275.9,217.5 212,254.4 
			205.7,250.8 202.8,252.5 212.2,258 		"/>
		<polygon fill-rule="evenodd" clip-rule="evenodd" fill="#3DB7E4" points="194.3,174.1 248.9,142.6 256,175.8 201.4,207.3 		"/>
		<polygon fill-rule="evenodd" clip-rule="evenodd" fill="#0088CE" points="199.5,198.2 227,182.7 232.1,173.5 246.4,165.4 
			254.2,167.3 256,175.8 201.4,207.3 		"/>
		<polygon fill-rule="evenodd" clip-rule="evenodd" fill="#C5CCD1" points="268.4,150.5 265.8,149 257.7,153.7 260.3,155.2 		"/>
		<polygon fill-rule="evenodd" clip-rule="evenodd" fill="#9C9C9C" points="260.3,155.2 257.7,153.7 257.7,158.9 260.2,170.4 
			260.3,170.5 		"/>
		<polygon fill-rule="evenodd" clip-rule="evenodd" fill="#E6EAEB" points="268.4,165.8 268.4,150.5 260.3,155.2 260.3,170.5 		"/>
		<path fill-rule="evenodd" clip-rule="evenodd" fill="#29648C" d="M154.8,158.6l23.7,13.7c1.1,0.6,2.1,1.6,2.9,2.8l0,0
			c0.8,1.2,1.4,2.5,1.7,3.9l0,0l6.3,29.5c0.2,1-0.2,1.6-0.9,1.4c-0.1,0-0.2-0.1-0.4-0.2v0l-33.3-19.2c-0.8-0.4-1.4-1.5-1.4-2.4
			v-28.8C153.5,158.6,154.1,158.2,154.8,158.6z"/>
		<polygon fill-rule="evenodd" clip-rule="evenodd" fill="#677475" points="162.9,200.9 152.6,194.9 151.4,195.6 161.7,201.6 		"/>
		<polygon fill-rule="evenodd" clip-rule="evenodd" fill="#4E5A5E" points="161.7,201.6 151.4,195.6 151.4,198.2 161.7,204.1 		"/>
		<polygon fill-rule="evenodd" clip-rule="evenodd" fill="#677475" points="162.9,203.4 162.9,200.9 161.7,201.6 161.7,204.1 		"/>
		<polygon fill-rule="evenodd" clip-rule="evenodd" fill="#C5CCD1" points="189.7,196 187,194.5 178.9,199.2 181.5,200.7 		"/>
		<polygon fill-rule="evenodd" clip-rule="evenodd" fill="#9C9C9C" points="181.5,200.7 178.9,199.2 178.9,214.5 181.5,216 		"/>
		<polygon fill-rule="evenodd" clip-rule="evenodd" fill="#E6EAEB" points="189.7,211.3 189.7,196 181.5,200.7 181.5,216 		"/>
		<polygon fill-rule="evenodd" clip-rule="evenodd" fill="#C5CCD1" points="193.8,205.1 191.1,203.6 189.7,204.4 189.7,207.4 		"/>
		<polygon fill-rule="evenodd" clip-rule="evenodd" fill="#E6EAEB" points="193.8,208.9 193.8,205.1 189.7,207.4 189.7,211.3 		"/>
		<polygon fill-rule="evenodd" clip-rule="evenodd" fill="#677475" points="81.9,160.7 81.9,156.2 114.6,175.1 114.6,179.5 		"/>
		<polygon fill-rule="evenodd" clip-rule="evenodd" fill="#4D4D4D" points="83.8,159.6 114.6,177.3 114.6,179.5 81.9,160.7 		"/>
		<polygon fill-rule="evenodd" clip-rule="evenodd" fill="#9C9C9C" points="81.9,148.8 81.9,119.3 148.1,157.6 148.1,187 		"/>
		<polygon fill-rule="evenodd" clip-rule="evenodd" fill="#889596" points="81.9,148.8 81.9,119.3 83.2,120.1 83.2,148.8 		"/>
		<polygon fill-rule="evenodd" clip-rule="evenodd" fill="#889596" points="83.2,148 148.1,185.4 148.1,187 81.9,148.8 		"/>
	</g>
</g>
</svg>
