<?xml version="1.0" encoding="utf-8"?>
<!-- Generator: Adobe Illustrator 21.1.0, SVG Export Plug-In . SVG Version: 6.00 Build 0)  -->
<!DOCTYPE svg PUBLIC "-//W3C//DTD SVG 1.1//EN" "http://www.w3.org/Graphics/SVG/1.1/DTD/svg11.dtd">
<svg version="1.1" id="Layer_1" xmlns="http://www.w3.org/2000/svg" xmlns:xlink="http://www.w3.org/1999/xlink" x="0px" y="0px"
	 width="360px" height="360px" viewBox="0 0 360 360" enable-background="new 0 0 360 360" xml:space="preserve">
<g>
	<path fill-rule="evenodd" clip-rule="evenodd" fill="#FFFFFF" d="M360,0c0,120,0,240,0,360c-120,0-240,0-360,0C0,240,0,120,0,0
		C120,0,240,0,360,0z"/>
	<g>
		<path opacity="3.300000e-03" fill-rule="evenodd" clip-rule="evenodd" fill="#040507" d="M259.6,249c44,25.4,44,66.6,0,92
			c-44,25.4-115.3,25.4-159.2,0c-44-25.4-44-66.6,0-92C144.4,223.6,215.6,223.6,259.6,249z"/>
		<path opacity="6.700000e-03" fill-rule="evenodd" clip-rule="evenodd" fill="#080A0D" d="M254.3,252.1c41,23.7,41,62.1,0,85.8
			c-41,23.7-107.5,23.7-148.6,0c-41-23.7-41-62.1,0-85.8C146.7,228.4,213.3,228.4,254.3,252.1z"/>
		<path opacity="1.000000e-02" fill-rule="evenodd" clip-rule="evenodd" fill="#0B0E14" d="M248.9,255.1c38.1,22,38.1,57.7,0,79.6
			c-38.1,22-99.8,22-137.9,0c-38.1-22-38.1-57.6,0-79.6C149.1,233.2,210.9,233.2,248.9,255.1z"/>
		<path opacity="1.330000e-02" fill-rule="evenodd" clip-rule="evenodd" fill="#0F131B" d="M243.6,258.2c35.1,20.3,35.1,53.2,0,73.5
			c-35.1,20.3-92.1,20.3-127.2,0c-35.1-20.3-35.1-53.2,0-73.5C151.5,237.9,208.5,237.9,243.6,258.2z"/>
		<path opacity="1.670000e-02" fill-rule="evenodd" clip-rule="evenodd" fill="#131822" d="M238.3,261.3c32.2,18.6,32.2,48.7,0,67.3
			c-32.2,18.6-84.4,18.6-116.6,0c-32.2-18.6-32.2-48.7,0-67.3C153.9,242.7,206.1,242.7,238.3,261.3z"/>
		<path opacity="2.000000e-02" fill-rule="evenodd" clip-rule="evenodd" fill="#171D29" d="M232.9,264.4c29.2,16.9,29.2,44.3,0,61.2
			c-29.2,16.9-76.6,16.9-105.9,0c-29.2-16.9-29.2-44.3,0-61.2C156.3,247.5,203.7,247.5,232.9,264.4z"/>
		<path opacity="2.330000e-02" fill-rule="evenodd" clip-rule="evenodd" fill="#1B2230" d="M227.6,267.5c26.3,15.2,26.3,39.8,0,55
			c-26.3,15.2-68.9,15.2-95.2,0c-26.3-15.2-26.3-39.8,0-55C158.7,252.3,201.3,252.3,227.6,267.5z"/>
		<path opacity="2.670000e-02" fill-rule="evenodd" clip-rule="evenodd" fill="#1F2737" d="M222.3,270.6c23.3,13.5,23.3,35.3,0,48.8
			c-23.3,13.5-61.2,13.5-84.5,0c-23.3-13.5-23.3-35.3,0-48.8C161.1,257.1,198.9,257.1,222.3,270.6z"/>
		<path opacity="3.000000e-02" fill-rule="evenodd" clip-rule="evenodd" fill="#232C3F" d="M216.9,273.6c20.4,11.8,20.4,30.9,0,42.7
			c-20.4,11.8-53.5,11.8-73.9,0c-20.4-11.8-20.4-30.9,0-42.7C163.5,261.9,196.5,261.9,216.9,273.6z"/>
		<path opacity="3.330000e-02" fill-rule="evenodd" clip-rule="evenodd" fill="#273246" d="M211.6,276.7c17.5,10.1,17.5,26.4,0,36.5
			c-17.5,10.1-45.8,10.1-63.2,0c-17.5-10.1-17.5-26.4,0-36.5C165.9,266.6,194.1,266.6,211.6,276.7z"/>
		<path opacity="3.670000e-02" fill-rule="evenodd" clip-rule="evenodd" fill="#2B374D" d="M206.3,279.8c14.5,8.4,14.5,22,0,30.3
			c-14.5,8.4-38,8.4-52.5,0c-14.5-8.4-14.5-22,0-30.3C168.2,271.4,191.8,271.4,206.3,279.8z"/>
		<path opacity="4.000000e-02" fill-rule="evenodd" clip-rule="evenodd" fill="#2F3C54" d="M200.9,282.9c11.6,6.7,11.6,17.5,0,24.2
			c-11.6,6.7-30.3,6.7-41.9,0c-11.6-6.7-11.6-17.5,0-24.2C170.6,276.2,189.4,276.2,200.9,282.9z"/>
		<path opacity="4.330000e-02" fill-rule="evenodd" clip-rule="evenodd" fill="#34415C" d="M195.6,286c8.6,5,8.6,13,0,18
			c-8.6,5-22.6,5-31.2,0s-8.6-13,0-18S187,281,195.6,286z"/>
		<path opacity="4.670000e-02" fill-rule="evenodd" clip-rule="evenodd" fill="#384763" d="M190.3,289c5.7,3.3,5.7,8.6,0,11.9
			c-5.7,3.3-14.9,3.3-20.5,0c-5.7-3.3-5.7-8.6,0-11.9C175.4,285.8,184.6,285.8,190.3,289z"/>
	</g>
	<g>
		<g>
			<polygon fill-rule="evenodd" clip-rule="evenodd" fill="#EBF1F5" points="150,116.4 88,152.2 205.3,219.9 272.7,223.8 
				274.1,223.9 267.2,184.1 			"/>
			<polygon fill-rule="evenodd" clip-rule="evenodd" fill="#878E8F" points="150,124.3 267.2,192 272.7,223.8 205.3,219.9 
				94.8,156.2 			"/>
			<polygon fill-rule="evenodd" clip-rule="evenodd" fill="#E6EAEB" points="202,223.9 202,224.7 202,261.5 81.9,192 77.9,152.2 
				188.6,216.2 			"/>
			<path fill-rule="evenodd" clip-rule="evenodd" fill="#EBF1F5" d="M202,261.5l63.9-4.7l16.2-28.3l-80.1-4.6
				C202,239.2,202,246.1,202,261.5z"/>
			<polygon fill-rule="evenodd" clip-rule="evenodd" fill="#587796" points="202,261.5 265.9,256.7 270.7,248.4 202,249.4 
				202,260.7 			"/>
			<polygon fill-rule="evenodd" clip-rule="evenodd" fill="#3D566E" points="80.7,179.4 81.9,192 202,261.5 202,249.4 			"/>
			<path fill-rule="evenodd" clip-rule="evenodd" fill="#C5CCD1" d="M150,110.6l-72.1,41.6l110.7,63.9l0,0l13.4,7.7l80.1,4.6
				l-8-46.2l-13.4-7.7l-5.1,2.9l5.1-2.9L150,110.6L150,110.6z M193.7,213.2L193.7,213.2L88,152.2l62-35.8l105.7,61l11.6,6.7
				l6.9,39.7l-68.8-4L193.7,213.2z"/>
			<polygon fill-rule="evenodd" clip-rule="evenodd" fill="#EBF1F5" points="131.4,166.7 131.4,116.8 117.1,108.6 109,153.7 			"/>
			<polygon fill-rule="evenodd" clip-rule="evenodd" fill="#9C9C9C" points="176.9,183.7 242.4,145.8 242.4,139.3 176.9,177.1 			
				"/>
			<polygon fill-rule="evenodd" clip-rule="evenodd" fill="#E6EAEB" points="176.9,183.7 176.9,177.1 117.4,142.9 117.5,149.5 			
				"/>
			<polygon fill-rule="evenodd" clip-rule="evenodd" fill="#C5CCD1" points="176.9,177.1 242.4,139.3 182.9,105.1 117.4,142.9 			
				"/>
			<polygon fill-rule="evenodd" clip-rule="evenodd" fill="#C5CCD1" points="179.7,208.9 245.2,171 241.8,169.1 241,168.6 
				241.5,170.6 180.9,205.6 126.9,174.5 123.5,176.5 			"/>
			<polygon fill-rule="evenodd" clip-rule="evenodd" fill="#3DB7E4" points="180.8,205.6 241.5,170.6 238.3,158.3 235.9,149.6 
				176.9,183.7 174.6,182.4 			"/>
			<polygon fill-rule="evenodd" clip-rule="evenodd" fill="#29648C" points="180.8,205.6 174.6,182.4 126.8,154.9 126.9,174.5 			
				"/>
			<polygon fill-rule="evenodd" clip-rule="evenodd" fill="#C5CCD1" points="160.6,149.4 202.7,125.1 200.4,123.8 160.7,146.7 
				131.5,129.9 129.2,131.2 			"/>
			<polygon fill-rule="evenodd" clip-rule="evenodd" fill="#3DB7E4" points="160.7,146.7 200.4,123.8 200.4,116 160.6,139 			"/>
			<polygon fill-rule="evenodd" clip-rule="evenodd" fill="#29648C" points="160.7,146.7 160.6,139 131.4,122.1 131.5,129.9 			"/>
			<polygon fill-rule="evenodd" clip-rule="evenodd" fill="#9C9C9C" points="160.7,154.2 202.7,130 202.7,125.1 160.6,149.4 			"/>
			<polygon fill-rule="evenodd" clip-rule="evenodd" fill="#EBF1F5" points="160.7,154.2 160.6,149.4 129.2,131.2 129.2,136.1 			
				"/>
			<polygon fill-rule="evenodd" clip-rule="evenodd" fill="#9C9C9C" points="192.7,212.6 247.8,180.8 247.3,179 245.2,171 
				182.9,207 			"/>
			<polygon fill-rule="evenodd" clip-rule="evenodd" fill="#9C9C9C" points="160.8,139 202.8,114.7 202.8,107.9 160.7,132.1 			"/>
			<polygon fill-rule="evenodd" clip-rule="evenodd" fill="#EBF1F5" points="160.8,139 160.7,132.1 117.1,107 117.2,113.9 			"/>
			<polygon fill-rule="evenodd" clip-rule="evenodd" fill="#9C9C9C" points="159.1,85.3 121.7,107 127.4,110.2 159.1,91.9 			"/>
			<polygon fill-rule="evenodd" clip-rule="evenodd" fill="#EBF1F5" points="192.5,111.2 198.2,107.9 159.1,85.3 159.1,91.9 			"/>
			<polygon fill-rule="evenodd" clip-rule="evenodd" fill="#C5CCD1" points="160.8,129.5 195.4,109.6 159.1,88.6 124.5,108.6 			"/>
			<path fill-rule="evenodd" clip-rule="evenodd" fill="#DADFE3" d="M160.7,132.1l42-24.3l-43.6-25.1l-42,24.3L160.7,132.1
				L160.7,132.1z M160.8,129.5L121.7,107l37.4-21.6l39.2,22.6L160.8,129.5z"/>
			<polygon fill-rule="evenodd" clip-rule="evenodd" fill="#666666" points="153.3,114.5 169.2,105.3 154,96.3 137.8,105.6 			"/>
			<polygon fill-rule="evenodd" clip-rule="evenodd" fill="#9C9C9C" points="153.3,114.5 169.2,105.3 169.2,99.9 153.3,109.1 			"/>
			<polygon fill-rule="evenodd" clip-rule="evenodd" fill="#DADFE3" points="153.3,109.1 169.2,99.9 154,90.9 137.8,100.2 			"/>
			<polygon fill-rule="evenodd" clip-rule="evenodd" fill="#EBF1F5" points="153.3,109.1 137.8,100.2 137.8,105.6 153.3,114.5 			
				"/>
			<polygon fill-rule="evenodd" clip-rule="evenodd" fill="#9C9C9C" points="153.5,100.7 154.7,100 154.7,71.4 153.5,72 			"/>
			<polygon fill-rule="evenodd" clip-rule="evenodd" fill="#2C3E50" points="153.5,72 154.7,71.4 153.6,70.7 152.4,71.4 			"/>
			<polygon fill-rule="evenodd" clip-rule="evenodd" fill="#E6EAEB" points="153.5,72 152.4,71.4 152.4,100 153.5,100.7 			"/>
			<polygon fill-rule="evenodd" clip-rule="evenodd" fill="#FF0000" points="153.5,72 154.7,71.4 153.6,70.7 152.4,71.4 			"/>
			<circle fill-rule="evenodd" clip-rule="evenodd" fill="#9C9C9C" cx="153.5" cy="71.4" r="1.9"/>
			<circle fill-rule="evenodd" clip-rule="evenodd" fill="#DADFE3" cx="153.3" cy="71.3" r="1.7"/>
			<path fill-rule="evenodd" clip-rule="evenodd" fill="#EBF1F5" d="M152,70.4c0.4-0.6,1.1-0.4,1.1,0.3c0,0.4-0.3,0.8-0.8,0.8
				C151.7,71.4,151.7,70.8,152,70.4z"/>
			<polygon fill-rule="evenodd" clip-rule="evenodd" fill="#E6EAEB" points="117.5,147.9 129.9,155.1 129.9,182.4 117.5,175.2 			
				"/>
			<polygon fill-rule="evenodd" clip-rule="evenodd" fill="#9C9C9C" points="135.1,159.7 129.9,156.7 129.9,182.4 135.1,179.4 			
				"/>
			<polygon fill-rule="evenodd" clip-rule="evenodd" fill="#9C9C9C" points="131.5,122.1 129.2,120.8 129.2,131.2 131.5,129.9 			
				"/>
			<polygon fill-rule="evenodd" clip-rule="evenodd" fill="#29648C" points="106.5,186.4 106.5,178.9 92.5,170.8 92.5,178.4 			"/>
			<polygon fill-rule="evenodd" clip-rule="evenodd" fill="#9C9C9C" points="91.2,179.1 92.5,178.4 92.5,170.8 91.2,170.1 			"/>
			<polygon fill-rule="evenodd" clip-rule="evenodd" fill="#C5CCD1" points="91.2,179.1 92.5,178.4 106.5,186.4 106.5,188 			"/>
			<polygon fill-rule="evenodd" clip-rule="evenodd" fill="#29648C" points="130.1,200 130.1,192.4 116.1,184.4 116.1,191.9 			"/>
			<polygon fill-rule="evenodd" clip-rule="evenodd" fill="#9C9C9C" points="114.8,192.7 116.1,191.9 116.1,184.4 114.8,183.7 			
				"/>
			<polygon fill-rule="evenodd" clip-rule="evenodd" fill="#C5CCD1" points="114.8,192.7 116.1,191.9 130.1,200 130.1,201.5 			"/>
			<polygon fill-rule="evenodd" clip-rule="evenodd" fill="#29648C" points="153.7,213.6 153.7,206 139.7,197.9 139.7,205.5 			"/>
			<polygon fill-rule="evenodd" clip-rule="evenodd" fill="#9C9C9C" points="138.4,206.2 139.7,205.5 139.7,197.9 138.4,197.2 			
				"/>
			<polygon fill-rule="evenodd" clip-rule="evenodd" fill="#C5CCD1" points="138.4,206.2 139.7,205.5 153.7,213.5 153.7,215.1 			
				"/>
			<polygon fill-rule="evenodd" clip-rule="evenodd" fill="#29648C" points="177.3,227.1 177.3,219.6 163.3,211.5 163.3,219.1 			
				"/>
			<polygon fill-rule="evenodd" clip-rule="evenodd" fill="#9C9C9C" points="162,219.8 163.3,219.1 163.3,211.5 162,210.8 			"/>
			<polygon fill-rule="evenodd" clip-rule="evenodd" fill="#C5CCD1" points="162,219.8 163.3,219.1 177.3,227.1 177.3,228.6 			"/>
		</g>
		<path fill-rule="evenodd" clip-rule="evenodd" fill="#878E8F" d="M199.2,236.2l0-0.2l-0.1-0.2l-0.1-0.2l-0.1-0.2l-0.1-0.2
			l-0.2-0.2l-0.2-0.2l-0.2-0.1l-0.2-0.1l-0.2,0l-0.2,0l-0.1,0.1l-0.4,0.3l0.1-0.1l0.2,0l0.2,0l0.2,0.1l0.2,0.1l0.2,0.2l0.2,0.2
			l0.1,0.2l0.1,0.2l0.1,0.2l0.1,0.2l0,0.2l0,0.7l-0.1,0.7l-0.2,0.6l-0.2,0.6l-0.3,0.5l-0.3,0.4l-0.4,0.4l-0.4,0.3l0.4-0.3l0.4-0.3
			l0.4-0.4l0.3-0.4l0.3-0.5l0.2-0.6l0.2-0.6l0.1-0.7L199.2,236.2L199.2,236.2z M192.8,239.9L192.8,239.9L192.8,239.9z M192.4,240.2
			L192.4,240.2L192.4,240.2z M187.4,228.3l-0.2-0.1l-0.2,0l-0.2,0l-0.1,0.1l-0.4,0.3l0.1-0.1l0.2,0l0.2,0l0.2,0.1l0.2,0.1l0.2,0.2
			l0.2,0.2l0.1,0.2l0.1,0.2l0.1,0.2l0.1,0.2l0,0.2l0,0.6l0.1,0.6l0.1,0.6l0.2,0.6l0.2,0.6l0.2,0.6l0.3,0.6l0.3,0.5l0.2,0.4l0.3,0.4
			l0.3,0.4l0.3,0.4l0.3,0.3l0.3,0.3l0.3,0.3l0.3,0.3l0.4-0.3l-0.3-0.3l-0.3-0.3l-0.3-0.3l-0.3-0.3l-0.3-0.4l-0.3-0.4l-0.3-0.4
			l-0.2-0.4l-0.3-0.5l-0.3-0.6l-0.2-0.6l-0.2-0.6l-0.2-0.6l-0.1-0.6l-0.1-0.6l0-0.6l0-0.2l-0.1-0.2l-0.1-0.2L188,229l-0.1-0.2
			l-0.2-0.2l-0.2-0.2L187.4,228.3L187.4,228.3z M192.8,224.3l0.2,0.1l0.2,0.2l0.2,0.2l0.1,0.2l0.1,0.2l0.1,0.2l0.1,0.2l0,0.2v12.3
			l0.3,0.1l0.3,0.1l0.3,0h0.3l0.3,0l0.3-0.1l0.3-0.1l0.2-0.1l-0.4,0.3l-0.2,0.1l-0.3,0.1l-0.3,0.1l-0.3,0h-0.3l-0.3,0l-0.3-0.1
			l-0.3-0.1v-12.3l0-0.2l-0.1-0.2l-0.1-0.2l-0.1-0.2l-0.1-0.2l-0.2-0.2l-0.2-0.2l-0.2-0.1l-0.2-0.1l-0.2,0l-0.2,0l-0.1,0l0.4-0.3
			l0.1,0l0.2,0l0.2,0L192.8,224.3z"/>
		<path fill-rule="evenodd" clip-rule="evenodd" fill="#677475" d="M198.8,236.5c0-0.6-0.4-1.3-0.9-1.6c-0.5-0.3-0.9-0.1-0.9,0.5
			c0,1.4-0.5,2.5-1.3,2.9c-0.6,0.4-1.4,0.4-2.3,0.1v-12.3c0-0.6-0.4-1.3-0.9-1.6c-0.5-0.3-0.9-0.1-0.9,0.5v12.3
			c-0.9-0.7-1.7-1.7-2.3-2.7c-0.8-1.4-1.3-3-1.3-4.5c0-0.6-0.4-1.3-0.9-1.6c-0.5-0.3-0.9-0.1-0.9,0.5c0,2,0.7,4.3,1.9,6.3
			c1.2,2,2.7,3.7,4.5,4.8l0,0l0,0l0,0c1.8,1,3.3,1.1,4.5,0.4C198.1,240,198.8,238.5,198.8,236.5z"/>
	</g>
</g>
</svg>
