<?xml version="1.0" encoding="utf-8"?>
<!-- Generator: Adobe Illustrator 21.1.0, SVG Export Plug-In . SVG Version: 6.00 Build 0)  -->
<!DOCTYPE svg PUBLIC "-//W3C//DTD SVG 1.1//EN" "http://www.w3.org/Graphics/SVG/1.1/DTD/svg11.dtd">
<svg version="1.1" id="Layer_1" xmlns="http://www.w3.org/2000/svg" xmlns:xlink="http://www.w3.org/1999/xlink" x="0px" y="0px"
	 width="360px" height="360px" viewBox="0 0 360 360" enable-background="new 0 0 360 360" xml:space="preserve">
<g>
	<g>
		<path fill-rule="evenodd" clip-rule="evenodd" fill="#FFFFFF" d="M0,0c0,120,0,240,0,360c120,0,240,0,360,0c0-120,0-240,0-360
			C240,0,120,0,0,0z"/>
		<g>
			<path opacity="3.300000e-03" fill-rule="evenodd" clip-rule="evenodd" fill="#040507" d="M100.4,249c-44,25.4-44,66.6,0,92
				c44,25.4,115.3,25.4,159.2,0c44-25.4,44-66.6,0-92C215.6,223.6,144.4,223.6,100.4,249z"/>
			<path opacity="6.700000e-03" fill-rule="evenodd" clip-rule="evenodd" fill="#080A0D" d="M105.7,252.1c-41,23.7-41,62.1,0,85.8
				c41,23.7,107.5,23.7,148.6,0c41-23.7,41-62.1,0-85.8C213.3,228.4,146.7,228.4,105.7,252.1z"/>
			<path opacity="1.000000e-02" fill-rule="evenodd" clip-rule="evenodd" fill="#0B0E14" d="M111.1,255.1c-38.1,22-38.1,57.7,0,79.6
				c38.1,22,99.8,22,137.9,0c38.1-22,38.1-57.6,0-79.6C210.9,233.2,149.1,233.2,111.1,255.1z"/>
			<path opacity="1.330000e-02" fill-rule="evenodd" clip-rule="evenodd" fill="#0F131B" d="M116.4,258.2
				c-35.1,20.3-35.1,53.2,0,73.5c35.1,20.3,92.1,20.3,127.2,0c35.1-20.3,35.1-53.2,0-73.5C208.5,237.9,151.5,237.9,116.4,258.2z"/>
			<path opacity="1.670000e-02" fill-rule="evenodd" clip-rule="evenodd" fill="#131822" d="M121.7,261.3
				c-32.2,18.6-32.2,48.7,0,67.3c32.2,18.6,84.4,18.6,116.6,0c32.2-18.6,32.2-48.7,0-67.3C206.1,242.7,153.9,242.7,121.7,261.3z"/>
			<path opacity="2.000000e-02" fill-rule="evenodd" clip-rule="evenodd" fill="#171D29" d="M127.1,264.4
				c-29.2,16.9-29.2,44.3,0,61.2c29.2,16.9,76.6,16.9,105.9,0c29.2-16.9,29.2-44.3,0-61.2C203.7,247.5,156.3,247.5,127.1,264.4z"/>
			<path opacity="2.330000e-02" fill-rule="evenodd" clip-rule="evenodd" fill="#1B2230" d="M132.4,267.5c-26.3,15.2-26.3,39.8,0,55
				c26.3,15.2,68.9,15.2,95.2,0c26.3-15.2,26.3-39.8,0-55C201.3,252.3,158.7,252.3,132.4,267.5z"/>
			<path opacity="2.670000e-02" fill-rule="evenodd" clip-rule="evenodd" fill="#1F2737" d="M137.7,270.6
				c-23.3,13.5-23.3,35.3,0,48.8c23.3,13.5,61.2,13.5,84.5,0c23.3-13.5,23.3-35.3,0-48.8C198.9,257.1,161.1,257.1,137.7,270.6z"/>
			<path opacity="3.000000e-02" fill-rule="evenodd" clip-rule="evenodd" fill="#232C3F" d="M143.1,273.6
				c-20.4,11.8-20.4,30.9,0,42.7c20.4,11.8,53.5,11.8,73.9,0c20.4-11.8,20.4-30.9,0-42.7C196.5,261.9,163.5,261.9,143.1,273.6z"/>
			<path opacity="3.330000e-02" fill-rule="evenodd" clip-rule="evenodd" fill="#273246" d="M148.4,276.7
				c-17.5,10.1-17.5,26.4,0,36.5c17.5,10.1,45.8,10.1,63.2,0c17.5-10.1,17.5-26.4,0-36.5C194.1,266.6,165.9,266.6,148.4,276.7z"/>
			<path opacity="3.670000e-02" fill-rule="evenodd" clip-rule="evenodd" fill="#2B374D" d="M153.7,279.8c-14.5,8.4-14.5,22,0,30.3
				c14.5,8.4,38,8.4,52.5,0c14.5-8.4,14.5-22,0-30.3C191.8,271.4,168.2,271.4,153.7,279.8z"/>
			<path opacity="4.000000e-02" fill-rule="evenodd" clip-rule="evenodd" fill="#2F3C54" d="M159.1,282.9
				c-11.6,6.7-11.6,17.5,0,24.2c11.6,6.7,30.3,6.7,41.9,0c11.6-6.7,11.6-17.5,0-24.2C189.4,276.2,170.6,276.2,159.1,282.9z"/>
			<path opacity="4.330000e-02" fill-rule="evenodd" clip-rule="evenodd" fill="#34415C" d="M164.4,286c-8.6,5-8.6,13,0,18
				c8.6,5,22.6,5,31.2,0s8.6-13,0-18S173,281,164.4,286z"/>
			<path opacity="4.670000e-02" fill-rule="evenodd" clip-rule="evenodd" fill="#384763" d="M169.7,289c-5.7,3.3-5.7,8.6,0,11.9
				c5.7,3.3,14.9,3.3,20.5,0c5.7-3.3,5.7-8.6,0-11.9C184.6,285.8,175.4,285.8,169.7,289z"/>
		</g>
	</g>
	<g>
		<path fill-rule="evenodd" clip-rule="evenodd" fill="#2C3E50" d="M212.6,252.6l20.7-14.7l-0.5,0.3
			c-56.2,30.1-143.6-111.9-86.6-148.9l0.5-0.3l0.5-0.3l-22.5,11.5C64.8,140.2,158.5,287.4,212.6,252.6z"/>
		<path fill-rule="evenodd" clip-rule="evenodd" fill="#E6EAEB" d="M176.1,102c33.2,19.2,60.1,65.8,60.1,104.2s-26.9,53.9-60.1,34.7
			c-33.2-19.2-60.1-65.8-60.1-104.2C115.9,98.3,142.9,82.8,176.1,102z"/>
		<path fill-rule="evenodd" clip-rule="evenodd" fill="#2C3E50" d="M140.2,70.7l-1.3,0.7l-20.7,11.9l1.3-0.7
			c27.6-12.4,58.1,11.9,76.6,30.7c28.9,30.3,50.5,77.3,43.8,120.1c-2.4,13.2-4.4,23.5-15.2,31.3l-1.2,0.8l20.7-11.9l1.2-0.8l1.2-0.9
			l1.2-0.9l1.1-1l1.1-1c4.9-4.9,7.7-9.6,10.3-15.9l0.6-1.6c13.4-39.8-8.9-90.5-33.5-121.5C208.5,87,172.2,56.4,140.2,70.7z"/>
		<polygon fill-rule="evenodd" clip-rule="evenodd" fill="#2C3E50" points="213.7,249.1 234.3,237.2 233.8,237.5 233.3,237.8 
			212.6,249.8 213.2,249.5 		"/>
		<polygon fill-rule="evenodd" clip-rule="evenodd" fill="#2C3E50" points="126.5,100.6 147.2,88.6 147.7,88.3 148.2,88 127.6,100 
			127,100.3 		"/>
		<path fill-rule="evenodd" clip-rule="evenodd" fill="#415A73" d="M222.2,144.8c13.5,23.3,21.8,49.6,21.8,73.4
			c0,23.7-8.3,40.4-21.8,48.2c-13.5,7.8-32.1,6.7-52.6-5.2c-20.5-11.9-39.2-32.2-52.6-55.6c-13.5-23.3-21.8-49.6-21.8-73.4
			c0-23.7,8.3-40.4,21.8-48.2c13.5-7.8,32.1-6.7,52.6,5.2C190.1,101.1,208.7,121.5,222.2,144.8L222.2,144.8z M113.2,115.8
			c-3,6.6-4.6,14.7-4.6,24.2c0,9.5,1.6,19.6,4.6,29.6c3.1,10.4,7.6,20.7,13.2,30.5c5.6,9.7,12.3,18.8,19.8,26.7
			c7.2,7.6,15,14,23.3,18.8c8.3,4.8,16.1,7.4,23.3,8.1c7.4,0.7,14.1-0.6,19.8-3.9c5.6-3.2,10.1-8.4,13.2-15.2
			c3-6.6,4.6-14.7,4.6-24.2c0-9.5-1.6-19.6-4.6-29.6c-3.1-10.4-7.6-20.7-13.2-30.5c-5.6-9.7-12.3-18.8-19.8-26.7
			c-7.2-7.6-15-14-23.3-18.8c-8.3-4.8-16.1-7.4-23.3-8.1c-7.4-0.7-14.1,0.6-19.8,3.9C120.9,103.8,116.3,109,113.2,115.8z"/>
		<path fill-rule="evenodd" clip-rule="evenodd" fill="#9C9C9C" d="M177.6,234.5c0-2.2-1.5-4.8-3.4-5.8c-1.9-1.1-3.4-0.2-3.4,2l0,0
			c0,2.1,1.5,4.8,3.4,5.8C176.1,237.6,177.6,236.7,177.6,234.5L177.6,234.5z"/>
		<path fill-rule="evenodd" clip-rule="evenodd" fill="#9C9C9C" d="M122.9,147.6c1.9,1.1,3.4,0.2,3.4-2c0-2.1-1.5-4.8-3.4-5.8l0,0
			c-1.9-1.1-3.4-0.2-3.4,2C119.6,143.9,121.1,146.6,122.9,147.6L122.9,147.6z"/>
		<path fill-rule="evenodd" clip-rule="evenodd" fill="#9C9C9C" d="M225.6,199.1c-1.9-1.1-3.4-0.2-3.4,1.9c0,2.2,1.5,4.8,3.4,5.9
			l0,0c1.9,1.1,3.4,0.2,3.4-2C228.9,202.8,227.4,200.2,225.6,199.1L225.6,199.1z"/>
		<path fill-rule="evenodd" clip-rule="evenodd" fill="#9C9C9C" d="M170.9,112c0,2.2,1.5,4.8,3.4,5.8c1.9,1.1,3.4,0.2,3.4-2v0.2
			c0-2.1-1.5-4.8-3.4-5.8c-1.9-1.1-3.4-0.2-3.4,2V112z"/>
		<polygon fill-rule="evenodd" clip-rule="evenodd" fill="#CCCCCC" points="137.8,110.2 180.2,169.7 210.7,236.4 165.4,178 		"/>
		<polygon fill-rule="evenodd" clip-rule="evenodd" fill="#3D566E" points="137.8,110.2 180.2,169.7 210.7,236.4 168.2,176.6 		"/>
		<polygon fill-rule="evenodd" clip-rule="evenodd" fill="#3DB7E4" points="137.8,110.2 180.2,169.7 180.2,169.7 168.2,176.6 		"/>
	</g>
</g>
</svg>
