<?xml version="1.0" encoding="utf-8"?>
<!-- Generator: Adobe Illustrator 21.1.0, SVG Export Plug-In . SVG Version: 6.00 Build 0)  -->
<!DOCTYPE svg PUBLIC "-//W3C//DTD SVG 1.1//EN" "http://www.w3.org/Graphics/SVG/1.1/DTD/svg11.dtd">
<svg version="1.1" id="Layer_1" xmlns="http://www.w3.org/2000/svg" xmlns:xlink="http://www.w3.org/1999/xlink" x="0px" y="0px"
	 width="360px" height="360px" viewBox="0 0 360 360" enable-background="new 0 0 360 360" xml:space="preserve">
<g>
	<g>
		<path fill-rule="evenodd" clip-rule="evenodd" fill="#FFFFFF" d="M360,0c0,120,0,240,0,360c-120,0-240,0-360,0C0,240,0,120,0,0
			C120,0,240,0,360,0z"/>
		<g>
			<path opacity="3.300000e-03" fill-rule="evenodd" clip-rule="evenodd" fill="#040507" d="M259.6,249c44,25.4,44,66.6,0,92
				c-44,25.4-115.3,25.4-159.2,0c-44-25.4-44-66.6,0-92C144.4,223.6,215.6,223.6,259.6,249z"/>
			<path opacity="6.700000e-03" fill-rule="evenodd" clip-rule="evenodd" fill="#080A0D" d="M254.3,252.1c41,23.7,41,62.1,0,85.8
				c-41,23.7-107.5,23.7-148.6,0c-41-23.7-41-62.1,0-85.8C146.7,228.4,213.3,228.4,254.3,252.1z"/>
			<path opacity="1.000000e-02" fill-rule="evenodd" clip-rule="evenodd" fill="#0B0E14" d="M248.9,255.1c38.1,22,38.1,57.7,0,79.6
				c-38.1,22-99.8,22-137.9,0c-38.1-22-38.1-57.6,0-79.6C149.1,233.2,210.9,233.2,248.9,255.1z"/>
			<path opacity="1.330000e-02" fill-rule="evenodd" clip-rule="evenodd" fill="#0F131B" d="M243.6,258.2
				c35.1,20.3,35.1,53.2,0,73.5c-35.1,20.3-92.1,20.3-127.2,0c-35.1-20.3-35.1-53.2,0-73.5C151.5,237.9,208.5,237.9,243.6,258.2z"/>
			<path opacity="1.670000e-02" fill-rule="evenodd" clip-rule="evenodd" fill="#131822" d="M238.3,261.3
				c32.2,18.6,32.2,48.7,0,67.3c-32.2,18.6-84.4,18.6-116.6,0c-32.2-18.6-32.2-48.7,0-67.3C153.9,242.7,206.1,242.7,238.3,261.3z"/>
			<path opacity="2.000000e-02" fill-rule="evenodd" clip-rule="evenodd" fill="#171D29" d="M232.9,264.4
				c29.2,16.9,29.2,44.3,0,61.2c-29.2,16.9-76.6,16.9-105.9,0c-29.2-16.9-29.2-44.3,0-61.2C156.3,247.5,203.7,247.5,232.9,264.4z"/>
			<path opacity="2.330000e-02" fill-rule="evenodd" clip-rule="evenodd" fill="#1B2230" d="M227.6,267.5c26.3,15.2,26.3,39.8,0,55
				c-26.3,15.2-68.9,15.2-95.2,0c-26.3-15.2-26.3-39.8,0-55C158.7,252.3,201.3,252.3,227.6,267.5z"/>
			<path opacity="2.670000e-02" fill-rule="evenodd" clip-rule="evenodd" fill="#1F2737" d="M222.3,270.6
				c23.3,13.5,23.3,35.3,0,48.8c-23.3,13.5-61.2,13.5-84.5,0c-23.3-13.5-23.3-35.3,0-48.8C161.1,257.1,198.9,257.1,222.3,270.6z"/>
			<path opacity="3.000000e-02" fill-rule="evenodd" clip-rule="evenodd" fill="#232C3F" d="M216.9,273.6
				c20.4,11.8,20.4,30.9,0,42.7c-20.4,11.8-53.5,11.8-73.9,0c-20.4-11.8-20.4-30.9,0-42.7C163.5,261.9,196.5,261.9,216.9,273.6z"/>
			<path opacity="3.330000e-02" fill-rule="evenodd" clip-rule="evenodd" fill="#273246" d="M211.6,276.7
				c17.5,10.1,17.5,26.4,0,36.5c-17.5,10.1-45.8,10.1-63.2,0c-17.5-10.1-17.5-26.4,0-36.5C165.9,266.6,194.1,266.6,211.6,276.7z"/>
			<path opacity="3.670000e-02" fill-rule="evenodd" clip-rule="evenodd" fill="#2B374D" d="M206.3,279.8c14.5,8.4,14.5,22,0,30.3
				c-14.5,8.4-38,8.4-52.5,0c-14.5-8.4-14.5-22,0-30.3C168.2,271.4,191.8,271.4,206.3,279.8z"/>
			<path opacity="4.000000e-02" fill-rule="evenodd" clip-rule="evenodd" fill="#2F3C54" d="M200.9,282.9c11.6,6.7,11.6,17.5,0,24.2
				c-11.6,6.7-30.3,6.7-41.9,0c-11.6-6.7-11.6-17.5,0-24.2C170.6,276.2,189.4,276.2,200.9,282.9z"/>
			<path opacity="4.330000e-02" fill-rule="evenodd" clip-rule="evenodd" fill="#34415C" d="M195.6,286c8.6,5,8.6,13,0,18
				c-8.6,5-22.6,5-31.2,0s-8.6-13,0-18S187,281,195.6,286z"/>
			<path opacity="4.670000e-02" fill-rule="evenodd" clip-rule="evenodd" fill="#384763" d="M190.3,289c5.7,3.3,5.7,8.6,0,11.9
				c-5.7,3.3-14.9,3.3-20.5,0c-5.7-3.3-5.7-8.6,0-11.9C175.4,285.8,184.6,285.8,190.3,289z"/>
		</g>
	</g>
	<g>
		<polygon fill-rule="evenodd" clip-rule="evenodd" fill="#34485C" points="81.6,218.2 78.9,215.5 78.7,215.2 78.5,214.9 
			78.4,214.6 78.3,214.2 78.2,213.8 78.1,213.4 78,213 77.9,212.6 77.9,212.1 77.9,211.6 77.9,134.3 77.9,133.8 78,133.3 78,132.8 
			78.1,132.3 78.2,131.8 78.3,131.3 78.4,130.8 78.6,130.3 78.7,129.8 78.9,129.3 79.1,128.8 79.3,128.3 79.5,127.8 79.8,127.3 
			80.1,126.8 80.3,126.3 80.6,125.8 80.9,125.4 81.2,124.9 81.5,124.5 81.8,124 82.2,123.6 82.5,123.2 82.9,122.8 83.3,122.4 
			83.6,122.1 84,121.7 84.4,121.4 84.8,121.1 85.2,120.8 85.6,120.5 86,120.3 195,57.4 195.5,57.1 195.9,56.9 196.3,56.8 
			196.7,56.6 197.1,56.5 197.4,56.4 197.8,56.3 198.2,56.3 198.5,56.3 198.9,56.3 199.2,56.3 199.6,56.4 199.9,56.5 200.2,56.6 
			200.5,56.7 200.8,56.8 203.5,59.5 203.2,59.4 202.9,59.3 202.6,59.2 202.3,59.1 201.9,59 201.6,59 201.2,59 200.9,59 200.5,59 
			200.1,59.1 199.8,59.2 199.4,59.3 199,59.5 198.6,59.7 198.2,59.9 197.7,60.1 88.7,123 88.3,123.2 87.9,123.5 87.5,123.8 
			87.1,124.1 86.7,124.4 86.3,124.8 86,125.1 85.6,125.5 85.2,125.9 84.9,126.3 84.5,126.7 84.2,127.2 83.9,127.6 83.6,128.1 
			83.3,128.5 83,129 82.7,129.5 82.5,130 82.3,130.5 82,131 81.8,131.5 81.6,132 81.4,132.5 81.3,133 81.1,133.5 81,134 80.9,134.5 
			80.8,135 80.7,135.5 80.7,136 80.6,136.5 80.6,137 80.6,214.4 80.6,214.8 80.6,215.3 80.7,215.7 80.8,216.1 80.9,216.5 81,216.9 
			81.1,217.3 81.2,217.6 81.4,217.9 		"/>
		<path fill-rule="evenodd" clip-rule="evenodd" fill="#3D566E" d="M88.7,123l109-62.9c4.4-2.6,8.1-0.5,8.1,4.7l0,77.4
			c0,5.1-3.6,11.5-8.1,14L88.7,219c-4.4,2.6-8.1,0.5-8.1-4.7l0-77.4C80.6,131.8,84.3,125.5,88.7,123z"/>
		<path fill-rule="evenodd" clip-rule="evenodd" fill="#8DC8E8" d="M89.2,128.8l28.7-16.6l79.3-45.8c2-1.2,3.7-0.2,3.7,2.1l0,75.3
			c0,2.4-1.7,5.2-3.7,6.4L107.7,202l-18.5,10.7c-2,1.2-3.7,0.2-3.7-2.1l0-75.3C85.5,132.8,87.2,130,89.2,128.8z"/>
		<polygon fill-rule="evenodd" clip-rule="evenodd" fill="#E6EAEB" points="105.8,138.5 180.7,95.2 180.7,146.9 105.8,190.2 		"/>
		<polygon fill-rule="evenodd" clip-rule="evenodd" fill="#0088CE" points="105.8,138.5 180.7,95.2 180.7,87.8 105.8,131.1 		"/>
		<path fill-rule="evenodd" clip-rule="evenodd" fill="#0088CE" d="M124.7,139.9L124.7,139.9c1-0.6,1.8-0.1,1.8,1.1l0,0
			c0,1.2-0.8,2.6-1.8,3.2l0,0c-1,0.6-1.8,0.1-1.8-1.1l0,0C122.9,141.9,123.7,140.4,124.7,139.9z"/>
		<path fill-rule="evenodd" clip-rule="evenodd" fill="#3DB7E4" d="M124.7,151.3L124.7,151.3c1-0.6,1.8-0.1,1.8,1.1l0,0
			c0,1.2-0.8,2.6-1.8,3.2l0,0c-1,0.6-1.8,0.1-1.8-1.1l0,0C122.9,153.3,123.7,151.8,124.7,151.3z"/>
		<path fill-rule="evenodd" clip-rule="evenodd" fill="#8DC8E8" d="M124.7,163.4L124.7,163.4c1-0.6,1.8-0.1,1.8,1.1l0,0
			c0,1.2-0.8,2.6-1.8,3.2l0,0c-1,0.6-1.8,0.1-1.8-1.1l0,0C122.9,165.4,123.7,164,124.7,163.4z"/>
		<polygon fill-rule="evenodd" clip-rule="evenodd" fill="#9C9C9C" points="130.3,137.7 158.8,121.2 158.8,123.4 130.3,139.8 		"/>
		<polygon fill-rule="evenodd" clip-rule="evenodd" fill="#9C9C9C" points="130.3,149.1 161.2,131.3 161.2,133.4 130.3,151.2 		"/>
		<polygon fill-rule="evenodd" clip-rule="evenodd" fill="#9C9C9C" points="130.3,161.2 154.6,147.2 154.6,149.3 130.3,163.3 		"/>
		<polygon fill-rule="evenodd" clip-rule="evenodd" fill="#E6EAEB" points="235.6,222.7 203.5,241.3 203.5,239.6 235.6,221 		"/>
		<polygon fill-rule="evenodd" clip-rule="evenodd" fill="#415A73" points="280.7,202.6 280.7,208.5 280.6,208.8 280.4,209.1 
			280.3,209.4 280.1,209.8 279.9,210 279.7,210.3 279.5,210.6 279.2,210.9 278.9,211.2 278.6,211.5 278.2,211.7 277.8,212 
			277.4,212.2 168,275.4 167.6,275.7 167.1,275.9 166.7,276.1 166.2,276.3 165.7,276.5 165.2,276.6 164.7,276.8 164.2,276.9 
			163.7,277 163.1,277.1 162.6,277.2 162.1,277.3 161.5,277.3 161,277.3 160.4,277.4 159.9,277.4 159.3,277.4 158.8,277.3 
			158.2,277.3 157.7,277.2 157.1,277.2 156.6,277.1 156.1,277 155.5,276.9 155,276.8 154.5,276.6 154,276.5 153.5,276.3 
			153.1,276.1 152.6,275.9 152.2,275.7 151.7,275.4 84.5,236.6 84.1,236.3 83.8,236.1 83.4,235.8 83.1,235.5 82.8,235.2 82.5,235 
			82.3,234.7 82,234.4 81.8,234.1 81.7,233.8 81.5,233.4 81.4,233.1 81.3,232.8 81.3,226.9 81.4,227.2 81.5,227.5 81.7,227.8 
			81.8,228.1 82,228.4 82.3,228.7 82.5,229 82.8,229.3 83.1,229.6 83.4,229.9 83.8,230.1 84.1,230.4 84.5,230.6 151.7,269.5 
			152.2,269.7 152.6,270 153.1,270.2 153.5,270.4 154,270.5 154.5,270.7 155,270.8 155.5,271 156.1,271.1 156.6,271.2 157.1,271.3 
			157.7,271.3 158.2,271.4 158.8,271.4 159.3,271.4 159.9,271.5 160.4,271.4 161,271.4 161.5,271.4 162.1,271.3 162.6,271.3 
			163.1,271.2 163.7,271.1 164.2,271 164.7,270.8 165.2,270.7 165.7,270.5 166.2,270.4 166.7,270.2 167.1,270 167.6,269.7 
			168,269.5 277.4,206.3 277.8,206.1 278.2,205.8 278.6,205.6 278.9,205.3 279.2,205 279.5,204.7 279.7,204.4 279.9,204.1 
			280.1,203.8 280.3,203.5 280.4,203.2 280.6,202.9 		"/>
		<path fill-rule="evenodd" clip-rule="evenodd" fill="#34485C" d="M84.6,221.2L194,158c4.5-2.6,11.8-2.6,16.2,0l67.2,38.9
			c4.5,2.6,4.5,6.8,0,9.4L168,269.5c-4.5,2.6-11.8,2.6-16.2,0l-67.2-38.9C80.1,228.1,80.1,223.8,84.6,221.2z"/>
		<polygon fill-rule="evenodd" clip-rule="evenodd" fill="#415A73" points="202.2,243.3 232.1,226 209.2,212.8 179.3,230.1 		"/>
		<path fill-rule="evenodd" clip-rule="evenodd" fill="#3D566E" d="M98.3,223.4l8.6-5l13.1-7.5l13.6-7.9l6.8-3.9
			c0.1-0.1,0.3-0.2,0.4-0.2l8.6-5l13.1-7.5l13.6-7.9l17.7-10.2l4-2.3c2.4-1.4,6.3-1.4,8.7,0l33.9,19.6c2.4,1.4,2.4,3.6,0,5
			l-42.1,24.3c-0.1,0.1-0.3,0.2-0.4,0.2l-57,32.9c-2.4,1.4-6.3,1.4-8.7,0l-33.9-19.6C95.9,227.1,95.9,224.8,98.3,223.4z"/>
		<g>
			<path fill-rule="evenodd" clip-rule="evenodd" fill="#2C3E50" d="M142,218.8l4.9-2.8c1-0.6,2.6-0.6,3.6,0l4.9,2.8
				c1,0.6,1,1.5,0,2.1l-4.9,2.8c-1,0.6-2.6,0.6-3.6,0l-4.9-2.8C141,220.3,141.1,219.3,142,218.8z"/>
			<path fill-rule="evenodd" clip-rule="evenodd" fill="#2C3E50" d="M122.8,229.9l-4.9,2.8c-1,0.6-1,1.5,0,2.1l4.9,2.8
				c1,0.6,2.6,0.6,3.6,0l4.9-2.8c1-0.6,1-1.5,0-2.1l-4.9-2.8C125.4,229.3,123.8,229.3,122.8,229.9z"/>
			<path fill-rule="evenodd" clip-rule="evenodd" fill="#2C3E50" d="M134.9,236.8l-4.9,2.8c-1,0.6-1,1.5,0,2.1l4.9,2.8
				c1,0.6,2.6,0.6,3.6,0l4.9-2.8c1-0.6,1-1.5,0-2.1l-4.9-2.8C137.5,236.3,135.9,236.3,134.9,236.8z"/>
			<path fill-rule="evenodd" clip-rule="evenodd" fill="#2C3E50" d="M126.4,223.7l4.9-2.8c1-0.6,1-1.5,0-2.1l-4.9-2.8
				c-1-0.6-2.6-0.6-3.6,0l-4.9,2.8c-1,0.6-1,1.5,0,2.1l4.9,2.8C123.8,224.2,125.4,224.2,126.4,223.7z"/>
			<path fill-rule="evenodd" clip-rule="evenodd" fill="#2C3E50" d="M138.5,216.7l4.9-2.8c1-0.6,1-1.5,0-2.1l-4.9-2.8
				c-1-0.6-2.6-0.6-3.6,0l-4.9,2.8c-1,0.6-1,1.5,0,2.1l4.9,2.8C135.9,217.3,137.5,217.3,138.5,216.7z"/>
			<path fill-rule="evenodd" clip-rule="evenodd" fill="#2C3E50" d="M119.3,227.8l-4.9,2.8c-1,0.6-2.6,0.6-3.6,0l-4.9-2.8
				c-1-0.6-1-1.5,0-2.1l4.9-2.8c1-0.6,2.6-0.6,3.6,0l4.9,2.8C120.2,226.3,120.2,227.2,119.3,227.8z"/>
			<path fill-rule="evenodd" clip-rule="evenodd" fill="#2C3E50" d="M130,225.7l4.9-2.8c1-0.6,2.6-0.6,3.6,0l4.9,2.8
				c1,0.6,1,1.5,0,2.1l-4.9,2.8c-1,0.6-2.6,0.6-3.6,0l-4.9-2.8C129,227.2,129,226.3,130,225.7z"/>
			<path fill-rule="evenodd" clip-rule="evenodd" fill="#2C3E50" d="M166.1,204.9l4.9-2.8c1-0.6,2.6-0.6,3.6,0l4.9,2.8
				c1,0.6,1,1.5,0,2.1l-4.9,2.8c-1,0.6-2.6,0.6-3.6,0l-4.9-2.8C165.1,206.4,165.1,205.4,166.1,204.9z"/>
			<path fill-rule="evenodd" clip-rule="evenodd" fill="#2C3E50" d="M178.2,211.8l4.9-2.8c1-0.6,2.6-0.6,3.6,0l4.9,2.8
				c1,0.6,1,1.5,0,2.1l-4.9,2.8c-1,0.6-2.6,0.6-3.6,0l-4.9-2.8C177.2,213.3,177.2,212.4,178.2,211.8z"/>
			<path fill-rule="evenodd" clip-rule="evenodd" fill="#2C3E50" d="M150.5,209.8l4.9-2.8c1-0.6,1-1.5,0-2.1l-4.9-2.8
				c-1-0.6-2.6-0.6-3.6,0l-4.9,2.8c-1,0.6-1,1.5,0,2.1l4.9,2.8C147.9,210.3,149.5,210.3,150.5,209.8z"/>
			<path fill-rule="evenodd" clip-rule="evenodd" fill="#2C3E50" d="M162.6,202.8l4.9-2.8c1-0.6,1-1.5,0-2.1l-4.9-2.8
				c-1-0.6-2.6-0.6-3.6,0l-4.9,2.8c-1,0.6-1,1.5,0,2.1l4.9,2.8C160,203.4,161.6,203.4,162.6,202.8z"/>
			<path fill-rule="evenodd" clip-rule="evenodd" fill="#2C3E50" d="M154.1,211.8l4.9-2.8c1-0.6,2.6-0.6,3.6,0l4.9,2.8
				c1,0.6,1,1.5,0,2.1l-4.9,2.8c-1,0.6-2.6,0.6-3.6,0l-4.9-2.8C153.1,213.3,153.1,212.4,154.1,211.8z"/>
			<path fill-rule="evenodd" clip-rule="evenodd" fill="#2C3E50" d="M142,232.7l29-16.7c1-0.6,2.6-0.6,3.6,0l4.9,2.8
				c1,0.6,1,1.5,0,2.1l-29,16.7c-1,0.6-2.6,0.6-3.6,0l-4.9-2.8C141,234.2,141,233.3,142,232.7z"/>
			<path fill-rule="evenodd" clip-rule="evenodd" fill="#2C3E50" d="M206.2,181.7l4.9-2.8c1-0.6,2.6-0.6,3.6,0l4.9,2.8
				c1,0.6,1,1.5,0,2.1l-4.9,2.8c-1,0.6-2.6,0.6-3.6,0l-4.9-2.8C205.2,183.2,205.2,182.3,206.2,181.7z"/>
			<path fill-rule="evenodd" clip-rule="evenodd" fill="#2C3E50" d="M218.2,188.7l4.9-2.8c1-0.6,2.6-0.6,3.6,0l4.9,2.8
				c1,0.6,1,1.5,0,2.1l-4.9,2.8c-1,0.6-2.6,0.6-3.6,0l-4.9-2.8C217.2,190.2,217.2,189.2,218.2,188.7z"/>
			<path fill-rule="evenodd" clip-rule="evenodd" fill="#2C3E50" d="M202.6,179.6l4.9-2.8c1-0.6,1-1.5,0-2.1l-4.9-2.8
				c-1-0.6-2.6-0.6-3.6,0l-4.9,2.8c-1,0.6-1,1.5,0,2.1l4.9,2.8C200,180.2,201.6,180.2,202.6,179.6z"/>
			<path fill-rule="evenodd" clip-rule="evenodd" fill="#2C3E50" d="M194.1,188.7l4.9-2.8c1-0.6,2.6-0.6,3.6,0l4.9,2.8
				c1,0.6,1,1.5,0,2.1l-4.9,2.8c-1,0.6-2.6,0.6-3.6,0l-4.9-2.8C193.1,190.2,193.1,189.2,194.1,188.7z"/>
			<path fill-rule="evenodd" clip-rule="evenodd" fill="#2C3E50" d="M206.2,195.6l4.9-2.8c1-0.6,2.6-0.6,3.6,0l4.9,2.8
				c1,0.6,1,1.5,0,2.1l-4.9,2.8c-1,0.6-2.6,0.6-3.6,0l-4.9-2.8C205.2,197.1,205.2,196.2,206.2,195.6z"/>
			<path fill-rule="evenodd" clip-rule="evenodd" fill="#2C3E50" d="M178.5,193.6l4.9-2.8c1-0.6,1-1.5,0-2.1l-4.9-2.8
				c-1-0.6-2.6-0.6-3.6,0l-4.9,2.8c-1,0.6-1,1.5,0,2.1l4.9,2.8C175.9,194.1,177.5,194.1,178.5,193.6z"/>
			<path fill-rule="evenodd" clip-rule="evenodd" fill="#2C3E50" d="M190.6,186.6l4.9-2.8c1-0.6,1-1.5,0-2.1l-4.9-2.8
				c-1-0.6-2.6-0.6-3.6,0l-4.9,2.8c-1,0.6-1,1.5,0,2.1l4.9,2.8C188,187.2,189.6,187.2,190.6,186.6z"/>
			<path fill-rule="evenodd" clip-rule="evenodd" fill="#2C3E50" d="M182.1,195.6l4.9-2.8c1-0.6,2.6-0.6,3.6,0l4.9,2.8
				c1,0.6,1,1.5,0,2.1l-4.9,2.8c-1,0.6-2.6,0.6-3.6,0l-4.9-2.8C181.1,197.1,181.1,196.2,182.1,195.6z"/>
			<path fill-rule="evenodd" clip-rule="evenodd" fill="#2C3E50" d="M194.1,202.6l4.9-2.8c1-0.6,2.6-0.6,3.6,0l4.9,2.8
				c1,0.6,1,1.5,0,2.1l-4.9,2.8c-1,0.6-2.6,0.6-3.6,0l-4.9-2.8C193.1,204.1,193.1,203.2,194.1,202.6z"/>
		</g>
		<path fill-rule="evenodd" clip-rule="evenodd" fill="#E6EAEB" d="M141.9,217.9l4.9-2.8c1-0.6,2.6-0.6,3.6,0l4.9,2.8
			c1,0.6,1,1.5,0,2.1l-4.9,2.8c-1,0.6-2.6,0.6-3.6,0l-4.9-2.8C140.9,219.4,140.9,218.5,141.9,217.9z"/>
		<path fill-rule="evenodd" clip-rule="evenodd" fill="#E6EAEB" d="M122.7,229l-4.9,2.8c-1,0.6-1,1.5,0,2.1l4.9,2.8
			c1,0.6,2.6,0.6,3.6,0l4.9-2.8c1-0.6,1-1.5,0-2.1l-4.9-2.8C125.3,228.5,123.7,228.5,122.7,229z"/>
		<path fill-rule="evenodd" clip-rule="evenodd" fill="#E6EAEB" d="M134.8,236l-4.9,2.8c-1,0.6-1,1.5,0,2.1l4.9,2.8
			c1,0.6,2.6,0.6,3.6,0l4.9-2.8c1-0.6,1-1.5,0-2.1l-4.9-2.8C137.3,235.4,135.7,235.4,134.8,236z"/>
		<path fill-rule="evenodd" clip-rule="evenodd" fill="#E6EAEB" d="M126.3,222.8l4.9-2.8c1-0.6,1-1.5,0-2.1l-4.9-2.8
			c-1-0.6-2.6-0.6-3.6,0l-4.9,2.8c-1,0.6-1,1.5,0,2.1l4.9,2.8C123.7,223.4,125.3,223.4,126.3,222.8z"/>
		<path fill-rule="evenodd" clip-rule="evenodd" fill="#E6EAEB" d="M138.3,215.9l4.9-2.8c1-0.6,1-1.5,0-2.1l-4.9-2.8
			c-1-0.6-2.6-0.6-3.6,0l-4.9,2.8c-1,0.6-1,1.5,0,2.1l4.9,2.8C135.8,216.4,137.4,216.4,138.3,215.9z"/>
		<path fill-rule="evenodd" clip-rule="evenodd" fill="#E6EAEB" d="M119.1,227l-4.9,2.8c-1,0.6-2.6,0.6-3.6,0l-4.9-2.8
			c-1-0.6-1-1.5,0-2.1l4.9-2.8c1-0.6,2.6-0.6,3.6,0l4.9,2.8C120.1,225.5,120.1,226.4,119.1,227z"/>
		<path fill-rule="evenodd" clip-rule="evenodd" fill="#E6EAEB" d="M129.9,224.9l4.9-2.8c1-0.6,2.6-0.6,3.6,0l4.9,2.8
			c1,0.6,1,1.5,0,2.1l-4.9,2.8c-1,0.6-2.6,0.6-3.6,0l-4.9-2.8C128.9,226.4,128.9,225.5,129.9,224.9z"/>
		<path fill-rule="evenodd" clip-rule="evenodd" fill="#E6EAEB" d="M166,204l4.9-2.8c1-0.6,2.6-0.6,3.6,0l4.9,2.8c1,0.6,1,1.5,0,2.1
			l-4.9,2.8c-1,0.6-2.6,0.6-3.6,0l-4.9-2.8C165,205.5,165,204.6,166,204z"/>
		<path fill-rule="evenodd" clip-rule="evenodd" fill="#E6EAEB" d="M178.1,211l4.9-2.8c1-0.6,2.6-0.6,3.6,0l4.9,2.8
			c1,0.6,1,1.5,0,2.1l-4.9,2.8c-1,0.6-2.6,0.6-3.6,0l-4.9-2.8C177.1,212.5,177.1,211.6,178.1,211z"/>
		<path fill-rule="evenodd" clip-rule="evenodd" fill="#E6EAEB" d="M150.4,208.9l4.9-2.8c1-0.6,1-1.5,0-2.1l-4.9-2.8
			c-1-0.6-2.6-0.6-3.6,0l-4.9,2.8c-1,0.6-1,1.5,0,2.1l4.9,2.8C147.8,209.5,149.4,209.5,150.4,208.9z"/>
		<path fill-rule="evenodd" clip-rule="evenodd" fill="#E6EAEB" d="M162.4,202l4.9-2.8c1-0.6,1-1.5,0-2.1l-4.9-2.8
			c-1-0.6-2.6-0.6-3.6,0l-4.9,2.8c-1,0.6-1,1.5,0,2.1l4.9,2.8C159.9,202.5,161.5,202.5,162.4,202z"/>
		<path fill-rule="evenodd" clip-rule="evenodd" fill="#E6EAEB" d="M154,211l4.9-2.8c1-0.6,2.6-0.6,3.6,0l4.9,2.8c1,0.6,1,1.5,0,2.1
			l-4.9,2.8c-1,0.6-2.6,0.6-3.6,0L154,213C153,212.5,153,211.6,154,211z"/>
		<path fill-rule="evenodd" clip-rule="evenodd" fill="#E6EAEB" d="M141.9,231.9l29-16.7c1-0.6,2.6-0.6,3.6,0l4.9,2.8
			c1,0.6,1,1.5,0,2.1l-29,16.7c-1,0.6-2.6,0.6-3.6,0l-4.9-2.8C140.9,233.4,140.9,232.4,141.9,231.9z"/>
		<path fill-rule="evenodd" clip-rule="evenodd" fill="#E6EAEB" d="M206.1,180.9l4.9-2.8c1-0.6,2.6-0.6,3.6,0l4.9,2.8
			c1,0.6,1,1.5,0,2.1l-4.9,2.8c-1,0.6-2.6,0.6-3.6,0l-4.9-2.8C205.1,182.4,205.1,181.5,206.1,180.9z"/>
		<path fill-rule="evenodd" clip-rule="evenodd" fill="#E6EAEB" d="M218.1,187.9l4.9-2.8c1-0.6,2.6-0.6,3.6,0l4.9,2.8
			c1,0.6,1,1.5,0,2.1l-4.9,2.8c-1,0.6-2.6,0.6-3.6,0l-4.9-2.8C217.1,189.3,217.1,188.4,218.1,187.9z"/>
		<path fill-rule="evenodd" clip-rule="evenodd" fill="#E6EAEB" d="M202.5,178.8l4.9-2.8c1-0.6,1-1.5,0-2.1l-4.9-2.8
			c-1-0.6-2.6-0.6-3.6,0l-4.9,2.8c-1,0.6-1,1.5,0,2.1l4.9,2.8C199.9,179.4,201.5,179.4,202.5,178.8z"/>
		<path fill-rule="evenodd" clip-rule="evenodd" fill="#E6EAEB" d="M194,187.8l4.9-2.8c1-0.6,2.6-0.6,3.6,0l4.9,2.8
			c1,0.6,1,1.5,0,2.1l-4.9,2.8c-1,0.6-2.6,0.6-3.6,0l-4.9-2.8C193,189.3,193,188.4,194,187.8z"/>
		<path fill-rule="evenodd" clip-rule="evenodd" fill="#E6EAEB" d="M206.1,194.8l4.9-2.8c1-0.6,2.6-0.6,3.6,0l4.9,2.8
			c1,0.6,1,1.5,0,2.1l-4.9,2.8c-1,0.6-2.6,0.6-3.6,0l-4.9-2.8C205.1,196.3,205.1,195.4,206.1,194.8z"/>
		<path fill-rule="evenodd" clip-rule="evenodd" fill="#E6EAEB" d="M178.4,192.7l4.9-2.8c1-0.6,1-1.5,0-2.1l-4.9-2.8
			c-1-0.6-2.6-0.6-3.6,0l-4.9,2.8c-1,0.6-1,1.5,0,2.1l4.9,2.8C175.8,193.3,177.4,193.3,178.4,192.7z"/>
		<path fill-rule="evenodd" clip-rule="evenodd" fill="#E6EAEB" d="M190.4,185.8l4.9-2.8c1-0.6,1-1.5,0-2.1l-4.9-2.8
			c-1-0.6-2.6-0.6-3.6,0l-4.9,2.8c-1,0.6-1,1.5,0,2.1l4.9,2.8C187.9,186.3,189.5,186.3,190.4,185.8z"/>
		<path fill-rule="evenodd" clip-rule="evenodd" fill="#E6EAEB" d="M182,194.8l4.9-2.8c1-0.6,2.6-0.6,3.6,0l4.9,2.8
			c1,0.6,1,1.5,0,2.1l-4.9,2.8c-1,0.6-2.6,0.6-3.6,0l-4.9-2.8C181,196.3,181,195.4,182,194.8z"/>
		<path fill-rule="evenodd" clip-rule="evenodd" fill="#E6EAEB" d="M194,201.8l4.9-2.8c1-0.6,2.6-0.6,3.6,0l4.9,2.8
			c1,0.6,1,1.5,0,2.1l-4.9,2.8c-1,0.6-2.6,0.6-3.6,0l-4.9-2.8C193,203.3,193,202.3,194,201.8z"/>
		<polygon fill-rule="evenodd" clip-rule="evenodd" fill="#2C3E50" points="81.6,218.2 78.9,215.5 78.7,215.2 78.5,214.9 
			78.4,214.6 78.3,214.2 78.2,213.8 78.1,213.4 78,213 77.9,212.6 77.9,212.1 77.9,211.7 77.9,134.3 77.9,133.8 78,133.3 78,132.8 
			78.1,132.3 78.2,131.8 78.3,131.3 78.4,130.8 78.6,130.3 78.7,129.8 78.9,129.3 79.1,128.8 79.3,128.3 79.5,127.8 79.8,127.3 
			79.9,127 83.1,128.8 83,129 82.7,129.5 82.5,130 82.3,130.5 82,131 81.8,131.5 81.6,132 81.4,132.5 81.3,133 81.1,133.5 81,134 
			80.9,134.5 80.8,135 80.7,135.5 80.7,136 80.6,136.5 80.6,137 80.6,214.4 80.6,214.8 80.6,215.3 80.7,215.7 80.8,216.1 
			80.9,216.5 81,216.9 81.1,217.3 81.2,217.6 81.4,217.9 		"/>
		<polygon fill-rule="evenodd" clip-rule="evenodd" fill="#2C3E50" points="160.5,277.4 160.5,271.4 160.4,271.4 159.9,271.5 
			159.3,271.4 158.8,271.4 158.2,271.4 157.7,271.3 157.1,271.3 156.6,271.2 156.1,271.1 155.5,271 155,270.8 154.5,270.7 
			154,270.5 153.5,270.4 153.1,270.2 152.6,270 152.2,269.7 151.7,269.5 84.5,230.6 84.1,230.4 83.8,230.1 83.4,229.9 83.1,229.6 
			82.8,229.3 82.5,229 82.3,228.7 82,228.4 81.8,228.1 81.7,227.8 81.5,227.5 81.4,227.2 81.3,226.9 81.3,232.8 81.4,233.1 
			81.5,233.4 81.7,233.8 81.8,234.1 82,234.4 82.3,234.7 82.5,234.9 82.8,235.2 83.1,235.5 83.4,235.8 83.8,236.1 84.1,236.3 
			84.5,236.6 151.7,275.4 152.2,275.7 152.6,275.9 153.1,276.1 153.5,276.3 154,276.5 154.5,276.6 155,276.8 155.5,276.9 156.1,277 
			156.6,277.1 157.1,277.2 157.7,277.2 158.2,277.3 158.8,277.3 159.3,277.4 159.9,277.4 160.4,277.4 		"/>
	</g>
</g>
</svg>
