<?xml version="1.0" encoding="utf-8"?>
<!-- Generator: Adobe Illustrator 21.1.0, SVG Export Plug-In . SVG Version: 6.00 Build 0)  -->
<!DOCTYPE svg PUBLIC "-//W3C//DTD SVG 1.1//EN" "http://www.w3.org/Graphics/SVG/1.1/DTD/svg11.dtd">
<svg version="1.1" id="Layer_1" xmlns="http://www.w3.org/2000/svg" xmlns:xlink="http://www.w3.org/1999/xlink" x="0px" y="0px"
	 width="128px" height="128px" viewBox="0 0 128 128" enable-background="new 0 0 128 128" xml:space="preserve">
<path fill="#c8c8c8" d="M74,16H50v8h24c22.1,0,40,17.9,40,40s-17.9,40-40,40H50v8h24c26.5,0,48-21.5,48-48S100.5,16,74,16z M62,64
	c0,4.4-3.6,8-8,8s-8-3.6-8-8s3.6-8,8-8S62,59.6,62,64z M50,32h8v16h-8V32z M50,80h8v16h-8V80z"/>
<path fill="#f1f1f1" d="M22,64c0,4.4-3.6,8-8,8s-8-3.6-8-8s3.6-8,8-8S22,59.6,22,64z M10,48h8V32h-8V48z M10,96h8V80h-8V96z"/>
<path fill="#dcdcdc" d="M42,40c0,4.4-3.6,8-8,8s-8-3.6-8-8s3.6-8,8-8S42,35.6,42,40z M34,80c-4.4,0-8,3.6-8,8s3.6,8,8,8s8-3.6,8-8
	S38.4,80,34,80z M30,72h8V56h-8V72z"/>
</svg>
