<?xml version="1.0" encoding="utf-8"?>
<!-- Generator: Adobe Illustrator 22.0.0, SVG Export Plug-In . SVG Version: 6.00 Build 0)  -->
<svg version="1.1" id="Layer_1" xmlns="http://www.w3.org/2000/svg" xmlns:xlink="http://www.w3.org/1999/xlink" x="0px" y="0px"
	 width="212px" height="24px" viewBox="0 0 212 24" enable-background="new 0 0 212 24" xml:space="preserve">
<g>
	<path fill="#FFFFFF" d="M33,0h2v24h-2V0z M67,24h2V0h-2V24z M73,2h8v22h2V2h8V0H73V2z M141,0v24h2V13h10l2-2h-12V2h16V0H141z
		 M163,0v24h2V13h10l2-2h-12V2h16V0H163z M185,24h2V0h-2V24z M17,0h-6v2h6c5.5,0,10,4.5,10,10s-4.5,10-10,10h-6v2h6
		c6.6,0,12-5.4,12-12S23.6,0,17,0z M195.9,19.1c-3.9-3.9-3.9-10.2,0-14.1s10.2-3.9,14.1,0l1.4-1.4c-4.7-4.7-12.3-4.7-17,0
		c-4.7,4.7-4.7,12.3,0,17c4.7,4.7,12.3,4.7,17,0l-1.4-1.4C206.2,23,199.8,23,195.9,19.1z M52,13h8.9c-0.5,5-4.8,9-9.9,9
		c-5.5,0-10-4.5-10-10S45.5,2,51,2v0c2.6,0,5.1,1,7.1,2.9l1.4-1.4C57.1,1.2,54.1,0,51,0c-6.6,0-12,5.4-12,12s5.4,12,12,12
		s12-5.4,12-12v-1H50L52,13z M115,24h2.2L127,4.5l9.8,19.5h2.2L127,0L115,24z M113,9c0-5-4-9-9-9h-9v24h2V2h7c3.9,0,7,3.1,7,7
		s-3.1,7-7,7h-1.8l8,8h2.8l-6.4-6.4C110.3,16.5,113,13.1,113,9z"/>
	<g>
		<circle fill="#FFFFFF" cx="12" cy="12" r="2"/>
		<rect x="11" y="4" fill="#FFFFFF" width="2" height="4"/>
		<rect x="11" y="16" fill="#FFFFFF" width="2" height="4"/>
		<circle opacity="0.75" fill="#FFFFFF" cx="7" cy="6" r="2"/>
		<circle opacity="0.5" fill="#FFFFFF" cx="2" cy="12" r="2"/>
		<circle opacity="0.75" fill="#FFFFFF" cx="7" cy="18" r="2"/>
		<rect x="1" y="4" opacity="0.5" fill="#FFFFFF" width="2" height="4"/>
		<rect x="1" y="16" opacity="0.5" fill="#FFFFFF" width="2" height="4"/>
		<rect x="6" y="10" opacity="0.75" fill="#FFFFFF" width="2" height="4"/>
	</g>
</g>
</svg>
