<?xml version="1.0" encoding="utf-8"?>
<!-- Generator: Adobe Illustrator 21.1.0, SVG Export Plug-In . SVG Version: 6.00 Build 0)  -->
<!DOCTYPE svg PUBLIC "-//W3C//DTD SVG 1.1//EN" "http://www.w3.org/Graphics/SVG/1.1/DTD/svg11.dtd">
<svg version="1.1" id="Layer_1" xmlns="http://www.w3.org/2000/svg" xmlns:xlink="http://www.w3.org/1999/xlink" x="0px" y="0px"
	 width="222px" height="24px" viewBox="0 0 222 24" enable-background="new 0 0 222 24" xml:space="preserve">
<path fill="#FFFFFF" d="M43,0h2v24h-2V0z M77,24h2V0h-2V24z M83,2h8v22h2V2h8V0H83V2z M151,0v24h2V13h10l2-2h-12V2h16V0H151z M173,0
	v24h2V13h10l2-2h-12V2h16V0H173z M195,24h2V0h-2V24z M27,0h-6v2h6c5.5,0,10,4.5,10,10s-4.5,10-10,10h-6v2h6c6.6,0,12-5.4,12-12
	S33.6,0,27,0z M205.9,19.1c-3.9-3.9-3.9-10.2,0-14.1s10.2-3.9,14.1,0l1.4-1.4c-4.7-4.7-12.3-4.7-17,0c-4.7,4.7-4.7,12.3,0,17
	c4.7,4.7,12.3,4.7,17,0l-1.4-1.4C216.2,23,209.8,23,205.9,19.1z M62,13h8.9c-0.5,5-4.8,9-9.9,9c-5.5,0-10-4.5-10-10S55.5,2,61,2v0
	c2.6,0,5.1,1,7.1,2.9l1.4-1.4C67.1,1.2,64.1,0,61,0c-6.6,0-12,5.4-12,12s5.4,12,12,12s12-5.4,12-12v-1H60L62,13z M125,24h2.2
	L137,4.5l9.8,19.5h2.2L137,0L125,24z M123,9c0-5-4-9-9-9h-9v24h2V2h7c3.9,0,7,3.1,7,7s-3.1,7-7,7h-1.8l8,8h2.8l-6.4-6.4
	C120.3,16.5,123,13.1,123,9z"/>
<path fill="#FFFFFF" d="M24,12c0,1.1-0.9,2-2,2s-2-0.9-2-2s0.9-2,2-2S24,10.9,24,12z M21,8h2V4h-2V8z M21,20h2v-4h-2V20z"/>
<path opacity="0.6" fill="#FFFFFF" d="M14,12c0,1.1-0.9,2-2,2s-2-0.9-2-2s0.9-2,2-2S14,10.9,14,12z M11,8h2V4h-2V8z M11,20h2v-4h-2
	V20z"/>
<path opacity="0.8" fill="#FFFFFF" d="M19,6c0,1.1-0.9,2-2,2s-2-0.9-2-2s0.9-2,2-2S19,4.9,19,6z M17,16c-1.1,0-2,0.9-2,2s0.9,2,2,2
	s2-0.9,2-2S18.1,16,17,16z M16,14h2v-4h-2V14z"/>
<path opacity="0.2" fill="#FFFFFF" d="M4,12c0,1.1-0.9,2-2,2s-2-0.9-2-2s0.9-2,2-2S4,10.9,4,12z M1,8h2V4H1V8z M1,20h2v-4H1V20z"/>
<path opacity="0.4" fill="#FFFFFF" d="M9,6c0,1.1-0.9,2-2,2S5,7.1,5,6s0.9-2,2-2S9,4.9,9,6z M7,16c-1.1,0-2,0.9-2,2s0.9,2,2,2
	s2-0.9,2-2S8.1,16,7,16z M6,14h2v-4H6V14z"/>
</svg>
