<?xml version="1.0" encoding="utf-8"?>
<!-- Generator: Adobe Illustrator 21.1.0, SVG Export Plug-In . SVG Version: 6.00 Build 0)  -->
<!DOCTYPE svg PUBLIC "-//W3C//DTD SVG 1.1//EN" "http://www.w3.org/Graphics/SVG/1.1/DTD/svg11.dtd">
<svg version="1.1" id="Layer_1" xmlns="http://www.w3.org/2000/svg" xmlns:xlink="http://www.w3.org/1999/xlink" x="0px" y="0px"
	 width="60px" height="60px" viewBox="0 0 60 60" enable-background="new 0 0 60 60" xml:space="preserve">
<path fill="#FFFFFF" d="M33.2,0C33.2,0,60,0,60,26.8V60H26.8C26.8,60,0,60,0,33.2V0H33.2z"/>
<path fill="#0088CE" d="M19.7,20.8v1.4h-5.3v-9.7H16v8.3H19.7z M20.4,22.2h1.5v-7.4h-1.5V22.2z M23.4,22.2h1.5v-7.4h-1.5V22.2z
	 M33.2,14.8h-1.8l-2.5,3h-0.9v-5.2h-1.5v9.7h1.5V19h0.9l2.5,3.2h1.9l-3.1-3.8L33.2,14.8z"/>
<path fill="#3DB7E4" d="M20.1,29.4c0,0-0.8,0.6-2.2,0.6c-1.2,0-2.3-0.7-2.3-1.8h6.1c0-0.2,0-0.5,0-0.7c0-3-1.7-3.9-3.8-3.9
	S14,24.4,14,27.4c0,3,1.7,3.9,3.9,3.9c1.9,0,2.8-0.7,2.8-0.7L20.1,29.4z M17.8,24.8c1.3,0,2.3,0.6,2.3,2.1h-4.6
	C15.5,25.4,16.5,24.8,17.8,24.8 M44.6,29.4c0,0-0.8,0.6-2.2,0.6c-1.2,0-2.3-0.7-2.3-1.8h6.1c0-0.2,0-0.5,0-0.7c0-3-1.7-3.9-3.8-3.9
	c-2.2,0-3.8,0.9-3.8,3.9c0,3,1.7,3.9,3.9,3.9c1.9,0,2.8-0.7,2.8-0.7L44.6,29.4z M42.4,24.8c1.3,0,2.3,0.6,2.3,2.1h-4.6
	C40.1,25.4,41.1,24.8,42.4,24.8 M27.9,31.1v-4.8c0-1.1-0.7-1.4-1.7-1.4c-1.5,0-2,1-2,1v5.2h-1.5v-7.4H24l0.2,0.6
	c0,0,0.9-0.8,2.4-0.8c2.4,0,2.8,1.1,2.8,2.5v5.1H27.9z M36.1,31.1v-4.8c0-1.1-0.7-1.4-1.7-1.4c-1.5,0-2,1-2,1v5.2h-1.5v-7.4h1.3
	l0.2,0.6c0,0,0.9-0.8,2.4-0.8c2.4,0,2.8,1.1,2.8,2.5v5.1H36.1z"/>
<path fill="#0046AD" d="M32.6,32.6h1.5v7.4h-1.5V32.6z M30.3,32.6l-2.2,6.2h0l-2.2-6.2h-1.7l2.7,7.4h2.4l2.7-7.4H30.3z M39.3,32.5
	c-1.6,0-2.3,0.9-2.3,0.9l-0.2-0.8h-1.3v7.4h1.5v-4.9c0,0,0.4-1.3,2.3-1.3V32.5z M44.6,37.1c0,0-0.9-0.3-2.4-0.3
	c-1.1,0-1.4,0.3-1.4,0.9c0,0.6,0.3,1.2,1.4,1.2c1.6,0,2.4-0.8,2.4-0.8V37.1z M46.5,40.1h-1.6l-0.2-0.7c0,0-1.2,0.8-2.7,0.8
	c-1.9,0-2.7-1.1-2.7-2.5c0-1.3,0.7-2.2,2.6-2.2c1.9,0,2.7,0.3,2.7,0.3v-0.6c0-1.1-0.5-1.4-1.8-1.4c-1.3,0-2.2,0.5-2.2,0.5l-0.8-1.2
	c0,0,1.3-0.7,3.1-0.7c1.7,0,3.2,0.2,3.2,2.5v3.9L46.5,40.1z"/>
<path fill="#00B0CA" d="M25,44.5c2,0,3,0.9,3,2.4c0,1.5-1.2,2.3-3.4,2.3c-2,0-3.2-0.9-3.2-0.9l0.9-1.1c0,0,1.1,0.7,2.4,0.7
	c1.1,0,1.9-0.2,1.9-0.9c0-0.7-0.6-1-2-1c-2.1,0-3.1-0.7-3.1-2.2c0-1.5,1.1-2.3,3.3-2.3c2.1,0,3.2,0.9,3.2,0.9l-0.9,1.1
	c0,0-0.8-0.6-2.2-0.6c-1.2,0-1.9,0.2-1.9,1C23,44.4,23.7,44.5,25,44.5 M31.8,47.8c-0.6,0-0.8-0.2-0.8-1.1V43h2.4v-1.4h-2.4v-1.3h-1
	l-0.6,1.3h-1.1V43h1.2v4c0,1.7,0.4,2.2,1.9,2.2c0.9,0,2.2-0.3,2.2-0.3l-0.2-1.3C33.5,47.6,32.6,47.8,31.8,47.8 M37.7,47.8
	c1.4,0,2.4-0.7,2.4-2.6c0-1.9-1-2.4-2.4-2.4c-1.4,0-2.4,0.5-2.4,2.4C35.4,47.1,36.3,47.8,37.7,47.8 M37.7,41.4
	c2.2,0,3.9,0.8,3.9,3.8s-1.8,3.9-3.9,3.9c-2.2,0-3.9-1-3.9-3.9S35.6,41.4,37.7,41.4"/>
</svg>
